<?xml version="1.0" encoding="UTF-8" standalone="no"?>
<!-- Created with Inkscape (http://www.inkscape.org/) -->

<svg
   xmlns:dc="http://purl.org/dc/elements/1.1/"
   xmlns:cc="http://creativecommons.org/ns#"
   xmlns:rdf="http://www.w3.org/1999/02/22-rdf-syntax-ns#"
   xmlns:svg="http://www.w3.org/2000/svg"
   xmlns="http://www.w3.org/2000/svg"
   xmlns:sodipodi="http://sodipodi.sourceforge.net/DTD/sodipodi-0.dtd"
   xmlns:inkscape="http://www.inkscape.org/namespaces/inkscape"
   id="svg2"
   version="1.1"
   inkscape:version="0.91 r13725"
   xml:space="preserve"
   width="1000"
   height="1000"
   viewBox="0 0 1000 1000"
   sodipodi:docname="logo.svg"><metadata
     id="metadata8"><rdf:RDF><cc:Work
         rdf:about=""><dc:format>image/svg+xml</dc:format><dc:type
           rdf:resource="http://purl.org/dc/dcmitype/StillImage" /><dc:title></dc:title></cc:Work></rdf:RDF></metadata><defs
     id="defs6"><clipPath
       clipPathUnits="userSpaceOnUse"
       id="clipPath18"><path
         d="M 0,800 800,800 800,0 0,0 0,800 Z"
         id="path20"
         inkscape:connector-curvature="0" /></clipPath><clipPath
       clipPathUnits="userSpaceOnUse"
       id="clipPath26"><path
         d="M 0,800 800,800 800,0 0,0 0,800 Z"
         id="path28"
         inkscape:connector-curvature="0" /></clipPath><clipPath
       clipPathUnits="userSpaceOnUse"
       id="clipPath30"><path
         d="m 0,800 44.6104,0 0,-800 L 0,0 0,800 Z"
         id="path32"
         inkscape:connector-curvature="0" /></clipPath><clipPath
       clipPathUnits="userSpaceOnUse"
       id="clipPath34"><path
         d="m 83.9326,800 44.6094,0 0,-800 -44.6094,0 0,800 z"
         id="path36"
         inkscape:connector-curvature="0" /></clipPath><clipPath
       clipPathUnits="userSpaceOnUse"
       id="clipPath38"><path
         d="m 167.865,800 44.61,0 0,-800 -44.61,0 0,800 z"
         id="path40"
         inkscape:connector-curvature="0" /></clipPath><clipPath
       clipPathUnits="userSpaceOnUse"
       id="clipPath42"><path
         d="m 251.797,800 44.61,0 0,-800 -44.61,0 0,800 z"
         id="path44"
         inkscape:connector-curvature="0" /></clipPath><clipPath
       clipPathUnits="userSpaceOnUse"
       id="clipPath46"><path
         d="m 335.729,800 44.61,0 0,-800 -44.61,0 0,800 z"
         id="path48"
         inkscape:connector-curvature="0" /></clipPath><clipPath
       clipPathUnits="userSpaceOnUse"
       id="clipPath50"><path
         d="m 419.662,800 44.609,0 0,-800 -44.609,0 0,800 z"
         id="path52"
         inkscape:connector-curvature="0" /></clipPath><clipPath
       clipPathUnits="userSpaceOnUse"
       id="clipPath54"><path
         d="m 503.594,800 44.609,0 0,-800 -44.609,0 0,800 z"
         id="path56"
         inkscape:connector-curvature="0" /></clipPath><clipPath
       clipPathUnits="userSpaceOnUse"
       id="clipPath58"><path
         d="m 587.526,800 44.61,0 0,-800 -44.61,0 0,800 z"
         id="path60"
         inkscape:connector-curvature="0" /></clipPath><clipPath
       clipPathUnits="userSpaceOnUse"
       id="clipPath62"><path
         d="m 671.458,800 44.609,0 0,-800 -44.609,0 0,800 z"
         id="path64"
         inkscape:connector-curvature="0" /></clipPath><clipPath
       clipPathUnits="userSpaceOnUse"
       id="clipPath66"><path
         d="m 755.391,800 44.609,0 0,-800 -44.609,0 0,800 z"
         id="path68"
         inkscape:connector-curvature="0" /></clipPath><clipPath
       clipPathUnits="userSpaceOnUse"
       id="clipPath178"><path
         d="M 0,800 800,800 800,0 0,0 0,800 Z"
         id="path180"
         inkscape:connector-curvature="0" /></clipPath><clipPath
       clipPathUnits="userSpaceOnUse"
       id="clipPath182"><path
         d="m 0,800 800,0 0,-44.61 -800,0 0,44.61 z"
         id="path184"
         inkscape:connector-curvature="0" /></clipPath><clipPath
       clipPathUnits="userSpaceOnUse"
       id="clipPath186"><path
         d="m 0,716.068 800,0 0,-44.61 -800,0 0,44.61 z"
         id="path188"
         inkscape:connector-curvature="0" /></clipPath><clipPath
       clipPathUnits="userSpaceOnUse"
       id="clipPath190"><path
         d="m 0,632.136 800,0 0,-44.611 -800,0 0,44.611 z"
         id="path192"
         inkscape:connector-curvature="0" /></clipPath><clipPath
       clipPathUnits="userSpaceOnUse"
       id="clipPath194"><path
         d="m 0,548.203 800,0 0,-44.61 -800,0 0,44.61 z"
         id="path196"
         inkscape:connector-curvature="0" /></clipPath><clipPath
       clipPathUnits="userSpaceOnUse"
       id="clipPath198"><path
         d="m 0,464.271 800,0 0,-44.61 -800,0 0,44.61 z"
         id="path200"
         inkscape:connector-curvature="0" /></clipPath><clipPath
       clipPathUnits="userSpaceOnUse"
       id="clipPath202"><path
         d="m 0,380.339 800,0 0,-44.61 -800,0 0,44.61 z"
         id="path204"
         inkscape:connector-curvature="0" /></clipPath><clipPath
       clipPathUnits="userSpaceOnUse"
       id="clipPath206"><path
         d="m 0,296.406 800,0 0,-44.609 -800,0 0,44.609 z"
         id="path208"
         inkscape:connector-curvature="0" /></clipPath><clipPath
       clipPathUnits="userSpaceOnUse"
       id="clipPath210"><path
         d="m 0,212.474 800,0 0,-44.61 -800,0 0,44.61 z"
         id="path212"
         inkscape:connector-curvature="0" /></clipPath><clipPath
       clipPathUnits="userSpaceOnUse"
       id="clipPath214"><path
         d="m 0,128.542 800,0 0,-44.6094 -800,0 0,44.6094 z"
         id="path216"
         inkscape:connector-curvature="0" /></clipPath><clipPath
       clipPathUnits="userSpaceOnUse"
       id="clipPath218"><path
         d="m 0,44.6094 800,0 L 800,0 0,0 0,44.6094 Z"
         id="path220"
         inkscape:connector-curvature="0" /></clipPath><clipPath
       clipPathUnits="userSpaceOnUse"
       id="clipPath338"><path
         d="M 0,0 800,0 800,800 0,800 0,0 Z"
         id="path340"
         inkscape:connector-curvature="0" /></clipPath><clipPath
       clipPathUnits="userSpaceOnUse"
       id="clipPath346"><path
         d="m -32768,32767 65535,0 0,-65535 -65535,0 0,65535 z"
         id="path348"
         inkscape:connector-curvature="0" /></clipPath><radialGradient
       fx="0"
       fy="0"
       cx="0"
       cy="0"
       r="1"
       gradientUnits="userSpaceOnUse"
       gradientTransform="matrix(400,0,0,-400,400,400)"
       spreadMethod="pad"
       id="radialGradient350"><stop
         style="stop-opacity:0;stop-color:#ffffff"
         offset="0"
         id="stop352" /><stop
         style="stop-opacity:0;stop-color:#ffffff"
         offset="0.43028059"
         id="stop354" /><stop
         style="stop-opacity:0.14999619;stop-color:#ffffff"
         offset="1"
         id="stop356" /></radialGradient><mask
       maskUnits="userSpaceOnUse"
       x="0"
       y="0"
       width="1"
       height="1"
       id="mask358"><g
         id="g360"><g
           clip-path="url(#clipPath346)"
           id="g362"><g
             id="g364"><g
               id="g366"><path
                 d="m -32768,32767 65535,0 0,-65535 -65535,0 0,65535 z"
                 style="fill:url(#radialGradient350);stroke:none"
                 id="path368"
                 inkscape:connector-curvature="0" /></g></g></g></g></mask><radialGradient
       fx="0"
       fy="0"
       cx="0"
       cy="0"
       r="1"
       gradientUnits="userSpaceOnUse"
       gradientTransform="matrix(400,0,0,-400,400,400)"
       spreadMethod="pad"
       id="radialGradient374"><stop
         style="stop-opacity:1;stop-color:#ffffff"
         offset="0"
         id="stop376" /><stop
         style="stop-opacity:1;stop-color:#ffffff"
         offset="0.43028059"
         id="stop378" /><stop
         style="stop-opacity:1;stop-color:#000000"
         offset="1"
         id="stop380" /></radialGradient><clipPath
       clipPathUnits="userSpaceOnUse"
       id="clipPath388"><path
         d="M 0,800 800,800 800,0 0,0 0,800 Z"
         id="path390"
         inkscape:connector-curvature="0" /></clipPath><clipPath
       clipPathUnits="userSpaceOnUse"
       id="clipPath524"><path
         d="M 0,800 800,800 800,0 0,0 0,800 Z"
         id="path526"
         inkscape:connector-curvature="0" /></clipPath><clipPath
       clipPathUnits="userSpaceOnUse"
       id="clipPath700"><path
         d="m 299.289,400 c 0,-55.621 45.09,-100.711 100.711,-100.711 l 0,0 c 55.621,0 100.711,45.09 100.711,100.711 l 0,0 c 0,55.621 -45.09,100.711 -100.711,100.711 l 0,0 c -55.621,0 -100.711,-45.09 -100.711,-100.711"
         id="path702"
         inkscape:connector-curvature="0" /></clipPath><radialGradient
       fx="0"
       fy="0"
       cx="0"
       cy="0"
       r="1"
       gradientUnits="userSpaceOnUse"
       gradientTransform="matrix(-5.5e-6,126.61398,126.61398,5.5e-6,400.53223,356.31152)"
       spreadMethod="pad"
       id="radialGradient708"><stop
         style="stop-opacity:1;stop-color:#ffffff"
         offset="0"
         id="stop710" /><stop
         style="stop-opacity:1;stop-color:#ffffff"
         offset="0.187559"
         id="stop712" /><stop
         style="stop-opacity:1;stop-color:#ffffff"
         offset="0.5273483"
         id="stop714" /><stop
         style="stop-opacity:1;stop-color:#cececd"
         offset="1"
         id="stop716" /></radialGradient><clipPath
       clipPathUnits="userSpaceOnUse"
       id="clipPath724"><path
         d="m 315.816,400 c 0,-46.493 37.69,-84.186 84.184,-84.186 l 0,0 c 46.495,0 84.185,37.693 84.185,84.186 l 0,0 c 0,46.494 -37.69,84.185 -84.185,84.185 l 0,0 c -46.494,0 -84.184,-37.691 -84.184,-84.185"
         id="path726"
         inkscape:connector-curvature="0" /></clipPath><radialGradient
       fx="2.69616e-17"
       fy="-0.440317"
       cx="0"
       cy="0"
       r="1"
       gradientUnits="userSpaceOnUse"
       gradientTransform="matrix(92.934341,0,0,-92.934341,399.46777,406.92676)"
       spreadMethod="pad"
       id="radialGradient732"><stop
         style="stop-opacity:1;stop-color:#ffffff"
         offset="0"
         id="stop734" /><stop
         style="stop-opacity:1;stop-color:#cececd"
         offset="1"
         id="stop736" /></radialGradient><clipPath
       clipPathUnits="userSpaceOnUse"
       id="clipPath744"><path
         d="M 0,800 800,800 800,0 0,0 0,800 Z"
         id="path746"
         inkscape:connector-curvature="0" /></clipPath></defs><sodipodi:namedview
     pagecolor="#ffffff"
     bordercolor="#666666"
     borderopacity="1"
     objecttolerance="10"
     gridtolerance="10"
     guidetolerance="10"
     inkscape:pageopacity="0"
     inkscape:pageshadow="2"
     inkscape:window-width="1323"
     inkscape:window-height="747"
     id="namedview4"
     showgrid="false"
     inkscape:zoom="0.3337544"
     inkscape:cx="502.04665"
     inkscape:cy="628.36599"
     inkscape:window-x="43"
     inkscape:window-y="21"
     inkscape:window-maximized="1"
     inkscape:current-layer="g384" /><g
     id="g10"
     inkscape:groupmode="layer"
     inkscape:label="01"
     transform="matrix(1.25,0,0,-1.25,0,1000)"><path
       d="M 0,0 800,0 800,800 0,800 0,0 Z"
       style="fill:#c4ad93;fill-opacity:1;fill-rule:nonzero;stroke:none"
       id="path12"
       inkscape:connector-curvature="0" /><g
       id="g14"><g
         id="g16"
         clip-path="url(#clipPath18)"><g
           id="g22"><g
             id="g24" /><g
             id="g70"><g
               clip-path="url(#clipPath26)"
               id="g72"
               style="opacity:0.19999701"><g
                 id="g74"><g
                   id="g76" /><g
                   id="g78"><g
                     clip-path="url(#clipPath30)"
                     id="g80"><path
                       d="M 44.61,0 0,0 l 0,800 44.61,0 0,-800 z"
                       style="fill:#9e7161;fill-opacity:1;fill-rule:nonzero;stroke:none"
                       id="path82"
                       inkscape:connector-curvature="0" /></g></g></g><g
                 id="g84"><g
                   id="g86" /><g
                   id="g88"><g
                     clip-path="url(#clipPath34)"
                     id="g90"><path
                       d="m 128.542,0 -44.61,0 0,800 44.61,0 0,-800 z"
                       style="fill:#9e7161;fill-opacity:1;fill-rule:nonzero;stroke:none"
                       id="path92"
                       inkscape:connector-curvature="0" /></g></g></g><g
                 id="g94"><g
                   id="g96" /><g
                   id="g98"><g
                     clip-path="url(#clipPath38)"
                     id="g100"><path
                       d="m 212.475,0 -44.61,0 0,800 44.61,0 0,-800 z"
                       style="fill:#9e7161;fill-opacity:1;fill-rule:nonzero;stroke:none"
                       id="path102"
                       inkscape:connector-curvature="0" /></g></g></g><g
                 id="g104"><g
                   id="g106" /><g
                   id="g108"><g
                     clip-path="url(#clipPath42)"
                     id="g110"><path
                       d="m 296.407,0 -44.61,0 0,800 44.61,0 0,-800 z"
                       style="fill:#9e7161;fill-opacity:1;fill-rule:nonzero;stroke:none"
                       id="path112"
                       inkscape:connector-curvature="0" /></g></g></g><g
                 id="g114"><g
                   id="g116" /><g
                   id="g118"><g
                     clip-path="url(#clipPath46)"
                     id="g120"><path
                       d="m 380.339,0 -44.61,0 0,800 44.61,0 0,-800 z"
                       style="fill:#9e7161;fill-opacity:1;fill-rule:nonzero;stroke:none"
                       id="path122"
                       inkscape:connector-curvature="0" /></g></g></g><g
                 id="g124"><g
                   id="g126" /><g
                   id="g128"><g
                     clip-path="url(#clipPath50)"
                     id="g130"><path
                       d="m 464.271,0 -44.609,0 0,800 44.609,0 0,-800 z"
                       style="fill:#9e7161;fill-opacity:1;fill-rule:nonzero;stroke:none"
                       id="path132"
                       inkscape:connector-curvature="0" /></g></g></g><g
                 id="g134"><g
                   id="g136" /><g
                   id="g138"><g
                     clip-path="url(#clipPath54)"
                     id="g140"><path
                       d="m 548.203,0 -44.609,0 0,800 44.609,0 0,-800 z"
                       style="fill:#9e7161;fill-opacity:1;fill-rule:nonzero;stroke:none"
                       id="path142"
                       inkscape:connector-curvature="0" /></g></g></g><g
                 id="g144"><g
                   id="g146" /><g
                   id="g148"><g
                     clip-path="url(#clipPath58)"
                     id="g150"><path
                       d="m 632.136,0 -44.609,0 0,800 44.609,0 0,-800 z"
                       style="fill:#9e7161;fill-opacity:1;fill-rule:nonzero;stroke:none"
                       id="path152"
                       inkscape:connector-curvature="0" /></g></g></g><g
                 id="g154"><g
                   id="g156" /><g
                   id="g158"><g
                     clip-path="url(#clipPath62)"
                     id="g160"><path
                       d="m 716.067,0 -44.609,0 0,800 44.609,0 0,-800 z"
                       style="fill:#9e7161;fill-opacity:1;fill-rule:nonzero;stroke:none"
                       id="path162"
                       inkscape:connector-curvature="0" /></g></g></g><g
                 id="g164"><g
                   id="g166" /><g
                   id="g168"><g
                     clip-path="url(#clipPath66)"
                     id="g170"><path
                       d="m 800,0 -44.609,0 0,800 44.609,0 0,-800 z"
                       style="fill:#9e7161;fill-opacity:1;fill-rule:nonzero;stroke:none"
                       id="path172"
                       inkscape:connector-curvature="0" /></g></g></g></g></g></g><g
           id="g174"><g
             id="g176" /><g
             id="g222"><g
               clip-path="url(#clipPath178)"
               id="g224"
               style="opacity:0.19999701"><g
                 id="g226"><g
                   id="g228" /><g
                   id="g230"><g
                     clip-path="url(#clipPath182)"
                     id="g232"><g
                       transform="translate(0,755.3901)"
                       id="g234"><path
                         d="m 0,0 0,44.61 800,0 L 800,0 0,0 Z"
                         style="fill:#9e7161;fill-opacity:1;fill-rule:nonzero;stroke:none"
                         id="path236"
                         inkscape:connector-curvature="0" /></g></g></g></g><g
                 id="g238"><g
                   id="g240" /><g
                   id="g242"><g
                     clip-path="url(#clipPath186)"
                     id="g244"><g
                       transform="translate(0,671.4575)"
                       id="g246"><path
                         d="M 0,0 0,44.611 800,44.61 800,0 0,0 Z"
                         style="fill:#9e7161;fill-opacity:1;fill-rule:nonzero;stroke:none"
                         id="path248"
                         inkscape:connector-curvature="0" /></g></g></g></g><g
                 id="g250"><g
                   id="g252" /><g
                   id="g254"><g
                     clip-path="url(#clipPath190)"
                     id="g256"><g
                       transform="translate(0,587.5259)"
                       id="g258"><path
                         d="M 0,0 0,44.61 800,44.609 800,0 0,0 Z"
                         style="fill:#9e7161;fill-opacity:1;fill-rule:nonzero;stroke:none"
                         id="path260"
                         inkscape:connector-curvature="0" /></g></g></g></g><g
                 id="g262"><g
                   id="g264" /><g
                   id="g266"><g
                     clip-path="url(#clipPath194)"
                     id="g268"><path
                       d="m 0,548.203 800,0 0,-44.61 -800,0 0,44.61 z"
                       style="fill:#9e7161;fill-opacity:1;fill-rule:nonzero;stroke:none"
                       id="path270"
                       inkscape:connector-curvature="0" /></g></g></g><g
                 id="g272"><g
                   id="g274" /><g
                   id="g276"><g
                     clip-path="url(#clipPath198)"
                     id="g278"><path
                       d="m 0,464.271 800,0 0,-44.61 -800,0 0,44.61 z"
                       style="fill:#9e7161;fill-opacity:1;fill-rule:nonzero;stroke:none"
                       id="path280"
                       inkscape:connector-curvature="0" /></g></g></g><g
                 id="g282"><g
                   id="g284" /><g
                   id="g286"><g
                     clip-path="url(#clipPath202)"
                     id="g288"><g
                       transform="translate(0,335.7285)"
                       id="g290"><path
                         d="M 0,0 0,44.61 800,44.609 800,0 0,0 Z"
                         style="fill:#9e7161;fill-opacity:1;fill-rule:nonzero;stroke:none"
                         id="path292"
                         inkscape:connector-curvature="0" /></g></g></g></g><g
                 id="g294"><g
                   id="g296" /><g
                   id="g298"><g
                     clip-path="url(#clipPath206)"
                     id="g300"><path
                       d="m 0,296.406 800,0 0,-44.609 -800,0 0,44.609 z"
                       style="fill:#9e7161;fill-opacity:1;fill-rule:nonzero;stroke:none"
                       id="path302"
                       inkscape:connector-curvature="0" /></g></g></g><g
                 id="g304"><g
                   id="g306" /><g
                   id="g308"><g
                     clip-path="url(#clipPath210)"
                     id="g310"><path
                       d="m 0,212.474 800,0 0,-44.609 -800,0 0,44.609 z"
                       style="fill:#9e7161;fill-opacity:1;fill-rule:nonzero;stroke:none"
                       id="path312"
                       inkscape:connector-curvature="0" /></g></g></g><g
                 id="g314"><g
                   id="g316" /><g
                   id="g318"><g
                     clip-path="url(#clipPath214)"
                     id="g320"><path
                       d="m 0,128.542 800,0 0,-44.609 -800,0 0,44.609 z"
                       style="fill:#9e7161;fill-opacity:1;fill-rule:nonzero;stroke:none"
                       id="path322"
                       inkscape:connector-curvature="0" /></g></g></g><g
                 id="g324"><g
                   id="g326" /><g
                   id="g328"><g
                     clip-path="url(#clipPath218)"
                     id="g330"><path
                       d="m 0,44.609 800,0 L 800,0 0,0 0,44.609 Z"
                       style="fill:#9e7161;fill-opacity:1;fill-rule:nonzero;stroke:none"
                       id="path332"
                       inkscape:connector-curvature="0" /></g></g></g></g></g></g></g></g><g
       id="g334"><g
         id="g336"
         clip-path="url(#clipPath338)"><g
           id="g342"><g
             id="g344" /><g
             id="g370"
             mask="url(#mask358)"><g
               id="g372"><path
                 d="M 0,0 800,0 800,800 0,800 0,0 Z"
                 style="fill:url(#radialGradient374);stroke:none"
                 id="path382"
                 inkscape:connector-curvature="0" /></g></g></g></g></g><g
       id="g384" /><g
       id="g520"><g
         id="g522"
         clip-path="url(#clipPath524)"><g
           id="g528"
           transform="translate(614.3945,383.0859)"><path
             d="m 0,0 c -0.216,0.034 -0.428,0.044 -0.642,0.068 0,0.012 0.002,0.023 0.002,0.032 0.215,-0.008 0.428,-0.032 0.645,-0.032 9.298,0 16.841,7.54 16.842,16.839 0.002,9.3 -7.537,16.839 -16.842,16.841 -0.217,0 -0.428,-0.024 -0.644,-0.033 -0.001,0.011 -0.001,0.021 -0.003,0.031 0.214,0.026 0.426,0.035 0.642,0.069 9.185,1.456 15.454,10.08 14.001,19.266 -1.454,9.186 -10.08,15.453 -19.269,13.998 -0.205,-0.033 -0.401,-0.087 -0.604,-0.127 -0.002,0.011 -0.005,0.022 -0.008,0.033 0.2,0.057 0.4,0.097 0.598,0.161 C 3.561,70.02 8.404,79.52 5.532,88.365 2.656,97.209 -6.843,102.05 -15.69,99.176 c -0.195,-0.063 -0.378,-0.148 -0.57,-0.217 -0.005,0.01 -0.008,0.021 -0.012,0.032 0.185,0.086 0.373,0.155 0.557,0.249 8.285,4.222 11.583,14.364 7.361,22.649 -4.222,8.286 -14.362,11.58 -22.652,7.359 -0.19,-0.097 -0.363,-0.212 -0.548,-0.315 -0.006,0.009 -0.01,0.018 -0.016,0.027 0.175,0.118 0.357,0.22 0.53,0.346 7.523,5.468 9.193,15.999 3.728,23.523 -5.467,7.524 -15.997,9.191 -23.525,3.724 -0.181,-0.131 -0.342,-0.279 -0.515,-0.415 -0.006,0.007 -0.012,0.015 -0.019,0.023 0.162,0.15 0.334,0.285 0.492,0.443 6.574,6.578 6.577,17.242 10e-4,23.818 -6.576,6.577 -17.236,6.575 -23.817,-0.001 -0.159,-0.158 -0.294,-0.329 -0.446,-0.492 -0.005,0.007 -0.013,0.012 -0.019,0.018 0.137,0.175 0.284,0.337 0.416,0.518 5.465,7.525 3.8,18.057 -3.726,23.524 -7.523,5.466 -18.053,3.796 -23.522,-3.727 -0.127,-0.174 -0.229,-0.356 -0.347,-0.533 -0.01,0.006 -0.018,0.011 -0.026,0.017 0.102,0.186 0.219,0.36 0.316,0.551 4.223,8.287 0.929,18.43 -7.359,22.652 -8.287,4.222 -18.425,0.926 -22.651,-7.361 -0.093,-0.184 -0.164,-0.375 -0.251,-0.56 -0.009,0.004 -0.02,0.008 -0.03,0.012 0.072,0.193 0.156,0.377 0.221,0.575 2.873,8.845 -1.966,18.346 -10.813,21.221 -8.845,2.874 -18.343,-1.968 -21.22,-10.814 -0.066,-0.199 -0.105,-0.401 -0.162,-0.602 -0.011,0.002 -0.021,0.006 -0.03,0.008 0.039,0.204 0.095,0.403 0.128,0.61 1.456,9.188 -4.811,17.813 -13.999,19.27 -9.187,1.454 -17.81,-4.814 -19.267,-14 -0.035,-0.218 -0.043,-0.433 -0.069,-0.649 -0.011,0 -0.02,0.002 -0.029,0.002 0.008,0.218 0.032,0.433 0.032,0.653 0,9.301 -7.539,16.841 -16.84,16.841 -9.301,0 -16.841,-7.54 -16.841,-16.841 0,-0.22 0.025,-0.435 0.033,-0.653 -0.01,0 -0.02,-0.002 -0.03,-0.002 -0.025,0.216 -0.034,0.429 -0.068,0.646 -1.454,9.186 -10.081,15.464 -19.265,14.004 -9.188,-1.455 -15.456,-10.085 -13.998,-19.265 0.033,-0.21 0.089,-0.409 0.129,-0.615 -0.01,-0.003 -0.023,-0.006 -0.034,-0.009 -0.058,0.201 -0.099,0.401 -0.163,0.601 -2.873,8.846 -12.376,13.697 -21.218,10.819 -8.847,-2.874 -13.688,-12.378 -10.813,-21.217 0.066,-0.201 0.15,-0.387 0.222,-0.582 -0.011,-0.005 -0.022,-0.009 -0.033,-0.013 -0.086,0.186 -0.158,0.377 -0.251,0.561 -4.22,8.287 -14.366,11.592 -22.65,7.367 -8.289,-4.223 -11.582,-14.369 -7.36,-22.647 0.098,-0.195 0.217,-0.372 0.322,-0.561 -0.01,-0.005 -0.019,-0.012 -0.029,-0.018 -0.12,0.178 -0.223,0.361 -0.349,0.536 -5.465,7.524 -16.003,9.2 -23.525,3.731 -7.524,-5.467 -9.19,-16.003 -3.725,-23.52 0.134,-0.184 0.284,-0.349 0.423,-0.526 -0.008,-0.007 -0.016,-0.014 -0.024,-0.021 -0.153,0.165 -0.29,0.337 -0.449,0.497 -6.573,6.576 -17.244,6.584 -23.816,0.005 -6.578,-6.576 -6.575,-17.244 0,-23.813 0.16,-0.161 0.334,-0.3 0.499,-0.453 -0.006,-0.009 -0.014,-0.017 -0.022,-0.026 -0.175,0.139 -0.339,0.288 -0.521,0.421 -7.521,5.468 -18.06,3.805 -23.523,-3.72 -5.468,-7.525 -3.796,-18.059 3.724,-23.521 0.177,-0.128 0.362,-0.233 0.542,-0.353 -0.007,-0.01 -0.013,-0.019 -0.019,-0.03 -0.187,0.105 -0.363,0.222 -0.555,0.321 -8.284,4.222 -18.435,0.931 -22.654,-7.355 -4.222,-8.287 -0.923,-18.43 7.36,-22.649 0.187,-0.095 0.379,-0.167 0.568,-0.255 -0.005,-0.011 -0.008,-0.022 -0.013,-0.033 -0.194,0.071 -0.381,0.156 -0.579,0.221 -8.842,2.875 -18.353,-1.964 -21.221,-10.808 -2.876,-8.845 1.969,-18.347 10.81,-21.219 0.203,-0.065 0.406,-0.107 0.609,-0.164 -0.001,-0.012 -0.005,-0.024 -0.008,-0.036 -0.206,0.041 -0.404,0.097 -0.614,0.13 -9.184,1.456 -17.82,-4.809 -19.27,-13.993 -1.457,-9.188 4.817,-17.813 13.998,-19.268 0.218,-0.036 0.435,-0.045 0.654,-0.07 0,-0.011 -0.002,-0.022 -0.002,-0.034 -0.22,0.008 -0.434,0.034 -0.655,0.034 -9.298,10e-4 -16.849,-7.538 -16.844,-16.836 -0.002,-9.303 7.544,-16.842 16.839,-16.842 0.222,0 0.439,0.025 0.659,0.034 0,-0.011 10e-4,-0.021 10e-4,-0.034 -0.217,-0.024 -0.432,-0.034 -0.651,-0.068 -9.184,-1.455 -15.462,-10.08 -14.003,-19.265 1.454,-9.187 10.085,-15.453 19.267,-13.998 0.211,0.032 0.41,0.087 0.616,0.128 0.004,-0.01 0.007,-0.023 0.01,-0.033 -0.202,-0.058 -0.405,-0.098 -0.606,-0.164 -8.844,-2.872 -13.695,-12.374 -10.815,-21.216 2.87,-8.847 12.376,-13.686 21.217,-10.814 0.2,0.066 0.386,0.152 0.581,0.222 0.004,-0.01 0.009,-0.021 0.014,-0.033 -0.188,-0.085 -0.378,-0.157 -0.564,-0.251 -8.285,-4.221 -11.591,-14.366 -7.364,-22.649 4.219,-8.288 14.363,-11.579 22.648,-7.361 0.194,0.1 0.37,0.216 0.558,0.321 0.006,-0.008 0.012,-0.018 0.019,-0.029 -0.179,-0.119 -0.361,-0.224 -0.536,-0.349 -7.524,-5.465 -9.203,-16.001 -3.731,-23.522 5.464,-7.523 15.998,-9.19 23.52,-3.725 0.183,0.133 0.347,0.282 0.523,0.422 0.008,-0.01 0.014,-0.018 0.022,-0.026 -0.164,-0.151 -0.336,-0.289 -0.495,-0.448 -6.574,-6.575 -6.585,-17.245 -0.003,-23.817 6.572,-6.577 17.237,-6.574 23.81,0 0.161,0.161 0.298,0.334 0.451,0.5 0.008,-0.01 0.017,-0.015 0.027,-0.025 -0.138,-0.175 -0.286,-0.336 -0.419,-0.519 -5.466,-7.519 -3.807,-18.059 3.722,-23.522 7.52,-5.47 18.054,-3.796 23.518,3.724 0.128,0.175 0.231,0.361 0.351,0.539 0.009,-0.006 0.02,-0.013 0.03,-0.019 -0.103,-0.186 -0.221,-0.36 -0.317,-0.551 -4.221,-8.285 -0.934,-18.434 7.356,-22.652 8.284,-4.227 18.427,-0.927 22.646,7.358 0.095,0.185 0.165,0.375 0.253,0.562 0.01,-0.003 0.022,-0.008 0.032,-0.012 -0.07,-0.193 -0.154,-0.378 -0.218,-0.574 -2.872,-8.842 1.963,-18.354 10.811,-21.221 8.84,-2.879 18.343,1.968 21.215,10.809 0.066,0.202 0.107,0.403 0.163,0.604 0.012,-0.003 0.023,-0.005 0.034,-0.008 -0.04,-0.204 -0.095,-0.401 -0.128,-0.608 -1.451,-9.182 4.811,-17.821 13.998,-19.27 9.181,-1.458 17.81,4.814 19.265,13.997 0.034,0.218 0.044,0.432 0.069,0.648 0.011,0 0.021,-0.002 0.033,-0.002 -0.008,-0.219 -0.033,-0.431 -0.033,-0.649 0.003,-9.295 7.539,-16.847 16.84,-16.841 9.297,-0.003 16.838,7.539 16.838,16.838 0,0.219 -0.025,0.432 -0.033,0.649 0.011,0 0.022,0.001 0.033,0.003 0.025,-0.215 0.034,-0.428 0.069,-0.643 1.457,-9.183 10.081,-15.46 19.267,-14 9.183,1.449 15.45,10.079 13.997,19.263 -0.033,0.208 -0.087,0.404 -0.128,0.61 0.01,0.002 0.022,0.003 0.033,0.005 0.055,-0.196 0.096,-0.396 0.16,-0.596 2.877,-8.841 12.377,-13.691 21.223,-10.812 8.841,2.867 13.68,12.37 10.808,21.217 -0.063,0.195 -0.147,0.378 -0.218,0.571 0.011,0.003 0.022,0.008 0.033,0.013 0.086,-0.185 0.154,-0.373 0.248,-0.556 4.225,-8.282 14.367,-11.588 22.652,-7.361 8.285,4.218 11.578,14.36 7.357,22.646 -0.096,0.19 -0.211,0.365 -0.314,0.549 0.009,0.006 0.019,0.012 0.027,0.019 0.12,-0.175 0.221,-0.357 0.346,-0.527 5.468,-7.521 16,-9.198 23.523,-3.728 7.523,5.46 9.19,15.993 3.725,23.52 -0.131,0.179 -0.279,0.339 -0.415,0.514 0.008,0.007 0.016,0.013 0.024,0.021 0.149,-0.162 0.284,-0.332 0.441,-0.489 6.578,-6.574 17.242,-6.581 23.816,-0.003 6.578,6.572 6.576,17.236 0.002,23.813 -0.158,0.159 -0.33,0.294 -0.492,0.445 0.008,0.008 0.015,0.016 0.021,0.024 0.172,-0.138 0.334,-0.284 0.513,-0.415 7.526,-5.464 18.06,-3.8 23.523,3.723 5.469,7.521 3.8,18.054 -3.724,23.524 -0.172,0.124 -0.354,0.227 -0.529,0.344 0.005,0.008 0.011,0.017 0.016,0.027 0.185,-0.103 0.357,-0.219 0.547,-0.316 8.286,-4.217 18.431,-0.926 22.651,7.362 4.224,8.282 0.928,18.425 -7.359,22.648 -0.182,0.093 -0.372,0.163 -0.555,0.248 0.004,0.012 0.007,0.021 0.012,0.031 0.192,-0.07 0.374,-0.154 0.57,-0.216 8.842,-2.872 18.346,1.966 21.218,10.81 2.879,8.845 -1.964,18.344 -10.81,21.22 -0.198,0.065 -0.399,0.105 -0.597,0.162 0.004,0.009 0.005,0.022 0.008,0.031 0.203,-0.041 0.398,-0.093 0.604,-0.128 9.183,-1.452 17.813,4.814 19.268,13.998 C 15.456,-10.083 9.188,-1.458 0,0"
             style="fill:#fed178;fill-opacity:1;fill-rule:nonzero;stroke:none"
             id="path530"
             inkscape:connector-curvature="0" /></g><g
           id="g532"
           transform="translate(608.4072,400)"><path
             d="m 0,0 c 0,-115.1 -93.308,-208.407 -208.407,-208.407 -115.1,0 -208.407,93.307 -208.407,208.407 0,115.1 93.307,208.407 208.407,208.407 C -93.308,208.407 0,115.1 0,0"
             style="fill:#fdfceb;fill-opacity:1;fill-rule:nonzero;stroke:none"
             id="path534"
             inkscape:connector-curvature="0" /></g><g
           id="g536"
           transform="translate(405.8145,598.8003)"><path
             d="m 0,0 c 0,-3.211 -2.604,-5.814 -5.814,-5.814 -3.211,0 -5.815,2.603 -5.815,5.814 0,3.211 2.604,5.814 5.815,5.814 C -2.604,5.814 0,3.211 0,0"
             style="fill:#e8d1b7;fill-opacity:1;fill-rule:nonzero;stroke:none"
             id="path538"
             inkscape:connector-curvature="0" /></g><g
           id="g540"
           transform="translate(473.459,584.8232)"><path
             d="m 0,0 c -1.099,-3.019 -4.436,-4.573 -7.453,-3.475 -3.018,1.098 -4.573,4.435 -3.475,7.452 1.099,3.018 4.435,4.574 7.452,3.475 C -0.459,6.353 1.098,3.017 0,0"
             style="fill:#e8d1b7;fill-opacity:1;fill-rule:nonzero;stroke:none"
             id="path542"
             inkscape:connector-curvature="0" /></g><g
           id="g544"
           transform="translate(532.2432,548.5527)"><path
             d="m 0,0 c -2.063,-2.46 -5.732,-2.78 -8.192,-0.717 -2.46,2.064 -2.78,5.732 -0.716,8.192 2.064,2.46 5.731,2.781 8.191,0.716 C 1.741,6.126 2.063,2.46 0,0"
             style="fill:#e8d1b7;fill-opacity:1;fill-rule:nonzero;stroke:none"
             id="path546"
             inkscape:connector-curvature="0" /></g><g
           id="g548"
           transform="translate(575.0771,494.3643)"><path
             d="m 0,0 c -2.78,-1.606 -6.336,-0.651 -7.942,2.129 -1.606,2.78 -0.654,6.336 2.128,7.944 2.781,1.604 6.336,0.652 7.941,-2.13 C 3.732,5.162 2.78,1.606 0,0"
             style="fill:#e8d1b7;fill-opacity:1;fill-rule:nonzero;stroke:none"
             id="path550"
             inkscape:connector-curvature="0" /></g><g
           id="g552"
           transform="translate(596.7939,428.7939)"><path
             d="m 0,0 c -3.161,-0.557 -6.175,1.556 -6.733,4.717 -0.56,3.161 1.55,6.177 4.714,6.737 C 1.144,12.01 4.159,9.899 4.717,6.737 5.272,3.574 3.162,0.559 0,0"
             style="fill:#e8d1b7;fill-opacity:1;fill-rule:nonzero;stroke:none"
             id="path554"
             inkscape:connector-curvature="0" /></g><g
           id="g556"
           transform="translate(594.7744,359.751)"><path
             d="m 0,0 c -3.159,0.557 -5.271,3.574 -4.714,6.735 0.557,3.161 3.571,5.273 6.735,4.718 C 5.184,10.894 7.295,7.879 6.738,4.717 6.178,1.555 3.163,-0.558 0,0"
             style="fill:#e8d1b7;fill-opacity:1;fill-rule:nonzero;stroke:none"
             id="path558"
             inkscape:connector-curvature="0" /></g><g
           id="g560"
           transform="translate(569.2627,295.5615)"><path
             d="m 0,0 c -2.778,1.604 -3.729,5.162 -2.126,7.942 1.605,2.78 5.159,3.732 7.943,2.13 C 8.598,8.465 9.55,4.909 7.945,2.128 6.337,-0.652 2.783,-1.606 0,0"
             style="fill:#e8d1b7;fill-opacity:1;fill-rule:nonzero;stroke:none"
             id="path562"
             inkscape:connector-curvature="0" /></g><g
           id="g564"
           transform="translate(523.3359,243.9687)"><path
             d="M 0,0 C -2.063,2.457 -1.738,6.127 0.719,8.19 3.177,10.254 6.844,9.933 8.911,7.476 10.975,5.014 10.653,1.348 8.193,-0.718 5.732,-2.779 2.065,-2.46 0,0"
             style="fill:#e8d1b7;fill-opacity:1;fill-rule:nonzero;stroke:none"
             id="path566"
             inkscape:connector-curvature="0" /></g><g
           id="g568"
           transform="translate(462.5332,211.1963)"><path
             d="M 0,0 C -1.098,3.015 0.462,6.352 3.476,7.45 6.491,8.548 9.829,6.993 10.931,3.976 12.028,0.957 10.472,-2.379 7.454,-3.478 4.436,-4.573 1.099,-3.019 0,0"
             style="fill:#e8d1b7;fill-opacity:1;fill-rule:nonzero;stroke:none"
             id="path570"
             inkscape:connector-curvature="0" /></g><g
           id="g572"
           transform="translate(394.187,201.1953)"><path
             d="m 0,0 c 0.002,3.208 2.608,5.811 5.816,5.812 3.209,0 5.814,-2.602 5.816,-5.815 0,-3.211 -2.603,-5.814 -5.816,-5.814 C 2.605,-5.814 0.002,-3.212 0,0"
             style="fill:#e8d1b7;fill-opacity:1;fill-rule:nonzero;stroke:none"
             id="path574"
             inkscape:connector-curvature="0" /></g><g
           id="g576"
           transform="translate(326.5439,215.1738)"><path
             d="M 0,0 C 1.099,3.013 4.437,4.567 7.452,3.471 10.467,2.374 12.027,-0.962 10.93,-3.98 9.832,-6.999 6.493,-8.554 3.475,-7.455 0.459,-6.354 -1.097,-3.02 0,0"
             style="fill:#e8d1b7;fill-opacity:1;fill-rule:nonzero;stroke:none"
             id="path578"
             inkscape:connector-curvature="0" /></g><g
           id="g580"
           transform="translate(267.7617,251.4424)"><path
             d="M 0,0 C 2.062,2.456 5.732,2.775 8.188,0.715 10.647,-1.349 10.972,-5.017 8.907,-7.477 6.845,-9.938 3.175,-10.258 0.713,-8.192 -1.743,-6.128 -2.065,-2.46 0,0"
             style="fill:#e8d1b7;fill-opacity:1;fill-rule:nonzero;stroke:none"
             id="path582"
             inkscape:connector-curvature="0" /></g><g
           id="g584"
           transform="translate(224.9292,305.6309)"><path
             d="m 0,0 c 2.777,1.602 6.334,0.646 7.937,-2.129 1.605,-2.78 0.656,-6.339 -2.126,-7.943 -2.78,-1.608 -6.337,-0.655 -7.945,2.129 C -3.735,-5.163 -2.783,-1.606 0,0"
             style="fill:#e8d1b7;fill-opacity:1;fill-rule:nonzero;stroke:none"
             id="path586"
             inkscape:connector-curvature="0" /></g><g
           id="g588"
           transform="translate(203.2124,371.2002)"><path
             d="m 0,0 c 3.156,0.556 6.173,-1.56 6.73,-4.716 0.558,-3.161 -1.551,-6.18 -4.715,-6.737 -3.162,-0.559 -6.178,1.554 -6.737,4.719 C -5.276,-3.575 -3.166,-0.558 0,0"
             style="fill:#e8d1b7;fill-opacity:1;fill-rule:nonzero;stroke:none"
             id="path590"
             inkscape:connector-curvature="0" /></g><g
           id="g592"
           transform="translate(205.2324,440.2432)"><path
             d="m 0,0 c 3.156,-0.559 5.266,-3.578 4.71,-6.734 -0.557,-3.161 -3.572,-5.276 -6.735,-4.717 -3.162,0.556 -5.274,3.572 -4.717,6.737 C -6.182,-1.555 -3.166,0.559 0,0"
             style="fill:#e8d1b7;fill-opacity:1;fill-rule:nonzero;stroke:none"
             id="path594"
             inkscape:connector-curvature="0" /></g><g
           id="g596"
           transform="translate(230.7437,504.4307)"><path
             d="m 0,0 c 2.775,-1.604 3.724,-5.164 2.125,-7.939 -1.607,-2.778 -5.163,-3.735 -7.944,-2.129 -2.782,1.605 -3.734,5.16 -2.129,7.945 C -6.34,0.654 -2.783,1.607 0,0"
             style="fill:#e8d1b7;fill-opacity:1;fill-rule:nonzero;stroke:none"
             id="path598"
             inkscape:connector-curvature="0" /></g><g
           id="g600"
           transform="translate(276.6699,556.0215)"><path
             d="m 0,0 c 2.059,-2.457 1.734,-6.125 -0.72,-8.186 -2.46,-2.061 -6.128,-1.745 -8.191,0.717 -2.067,2.459 -1.745,6.125 0.716,8.193 C -5.735,2.783 -2.066,2.463 0,0"
             style="fill:#e8d1b7;fill-opacity:1;fill-rule:nonzero;stroke:none"
             id="path602"
             inkscape:connector-curvature="0" /></g><g
           id="g604"
           transform="translate(337.4702,588.7944)"><path
             d="m 0,0 c 1.096,-3.013 -0.465,-6.35 -3.475,-7.446 -3.017,-1.096 -6.356,0.456 -7.451,3.475 -1.102,3.017 0.454,6.353 3.474,7.455 C -4.436,4.576 -1.099,3.021 0,0"
             style="fill:#e8d1b7;fill-opacity:1;fill-rule:nonzero;stroke:none"
             id="path606"
             inkscape:connector-curvature="0" /></g><g
           id="g608"
           transform="translate(436.5449,595.4233)"><path
             d="m 0,0 c -0.196,-1.118 -1.263,-1.865 -2.382,-1.668 -1.119,0.198 -1.863,1.264 -1.667,2.383 0.197,1.118 1.263,1.865 2.382,1.667 C -0.548,2.185 0.197,1.119 0,0"
             style="fill:#e8d1b7;fill-opacity:1;fill-rule:nonzero;stroke:none"
             id="path610"
             inkscape:connector-curvature="0" /></g><g
           id="g612"
           transform="translate(501.1777,571.1387)"><path
             d="m 0,0 c -0.566,-0.983 -1.825,-1.32 -2.809,-0.752 -0.982,0.568 -1.32,1.825 -0.752,2.81 0.567,0.983 1.827,1.32 2.809,0.752 C 0.234,2.242 0.568,0.985 0,0"
             style="fill:#e8d1b7;fill-opacity:1;fill-rule:nonzero;stroke:none"
             id="path614"
             inkscape:connector-curvature="0" /></g><g
           id="g616"
           transform="translate(553.6064,526.2129)"><path
             d="m 0,0 c -0.869,-0.729 -2.166,-0.616 -2.896,0.254 -0.73,0.87 -0.618,2.165 0.255,2.896 0.869,0.732 2.166,0.617 2.894,-0.252 C 0.988,2.026 0.871,0.732 0,0"
             style="fill:#e8d1b7;fill-opacity:1;fill-rule:nonzero;stroke:none"
             id="path618"
             inkscape:connector-curvature="0" /></g><g
           id="g620"
           transform="translate(587.5098,466.0654)"><path
             d="M 0,0 C -1.066,-0.387 -2.248,0.162 -2.637,1.229 -3.023,2.296 -2.475,3.476 -1.406,3.863 -0.341,4.255 0.841,3.701 1.229,2.638 1.62,1.565 1.067,0.39 0,0"
             style="fill:#e8d1b7;fill-opacity:1;fill-rule:nonzero;stroke:none"
             id="path622"
             inkscape:connector-curvature="0" /></g><g
           id="g624"
           transform="translate(598.7949,397.9492)"><path
             d="M 0,0 C -1.133,0.001 -2.058,0.921 -2.058,2.057 -2.054,3.192 -1.135,4.113 0,4.111 1.137,4.116 2.054,3.19 2.058,2.057 2.058,0.916 1.137,0.001 0,0"
             style="fill:#e8d1b7;fill-opacity:1;fill-rule:nonzero;stroke:none"
             id="path626"
             inkscape:connector-curvature="0" /></g><g
           id="g628"
           transform="translate(586.1016,330.0811)"><path
             d="M 0,0 C -1.062,0.389 -1.617,1.568 -1.227,2.637 -0.837,3.702 0.342,4.252 1.408,3.863 2.479,3.479 3.025,2.296 2.638,1.229 2.248,0.157 1.071,-0.388 0,0"
             style="fill:#e8d1b7;fill-opacity:1;fill-rule:nonzero;stroke:none"
             id="path630"
             inkscape:connector-curvature="0" /></g><g
           id="g632"
           transform="translate(550.9629,270.6484)"><path
             d="M 0,0 C -0.862,0.727 -0.983,2.025 -0.253,2.896 0.479,3.765 1.776,3.879 2.644,3.148 3.518,2.422 3.627,1.122 2.9,0.251 2.165,-0.623 0.872,-0.73 0,0"
             style="fill:#e8d1b7;fill-opacity:1;fill-rule:nonzero;stroke:none"
             id="path634"
             inkscape:connector-curvature="0" /></g><g
           id="g636"
           transform="translate(497.6143,226.8164)"><path
             d="M 0,0 C -0.559,0.979 -0.229,2.24 0.755,2.81 1.74,3.375 2.997,3.037 3.565,2.054 4.135,1.072 3.796,-0.186 2.813,-0.756 1.823,-1.325 0.571,-0.983 0,0"
             style="fill:#e8d1b7;fill-opacity:1;fill-rule:nonzero;stroke:none"
             id="path638"
             inkscape:connector-curvature="0" /></g><g
           id="g640"
           transform="translate(432.4932,203.874)"><path
             d="M 0,0 C -0.191,1.111 0.551,2.184 1.67,2.382 2.791,2.577 3.854,1.831 4.052,0.712 4.251,-0.405 3.506,-1.474 2.384,-1.673 1.262,-1.868 0.2,-1.119 0,0"
             style="fill:#e8d1b7;fill-opacity:1;fill-rule:nonzero;stroke:none"
             id="path642"
             inkscape:connector-curvature="0" /></g><g
           id="g644"
           transform="translate(363.4531,204.5889)"><path
             d="M 0,0 C 0.198,1.111 1.266,1.864 2.383,1.667 3.504,1.468 4.249,0.403 4.05,-0.718 3.855,-1.835 2.789,-2.585 1.668,-2.388 0.546,-2.187 -0.195,-1.12 0,0"
             style="fill:#e8d1b7;fill-opacity:1;fill-rule:nonzero;stroke:none"
             id="path646"
             inkscape:connector-curvature="0" /></g><g
           id="g648"
           transform="translate(298.8193,228.874)"><path
             d="M 0,0 C 0.566,0.977 1.828,1.318 2.811,0.75 3.796,0.181 4.132,-1.074 3.562,-2.061 2.995,-3.044 1.739,-3.383 0.752,-2.814 -0.233,-2.242 -0.565,-0.987 0,0"
             style="fill:#e8d1b7;fill-opacity:1;fill-rule:nonzero;stroke:none"
             id="path650"
             inkscape:connector-curvature="0" /></g><g
           id="g652"
           transform="translate(246.3901,273.7998)"><path
             d="M 0,0 C 0.868,0.726 2.169,0.614 2.898,-0.255 3.63,-1.127 3.515,-2.421 2.644,-3.153 1.773,-3.886 0.479,-3.773 -0.256,-2.903 -0.983,-2.028 -0.866,-0.733 0,0"
             style="fill:#e8d1b7;fill-opacity:1;fill-rule:nonzero;stroke:none"
             id="path654"
             inkscape:connector-curvature="0" /></g><g
           id="g656"
           transform="translate(212.4888,333.9492)"><path
             d="M 0,0 C 1.063,0.385 2.25,-0.164 2.638,-1.231 3.025,-2.303 2.477,-3.479 1.406,-3.868 0.339,-4.259 -0.84,-3.711 -1.233,-2.642 -1.619,-1.569 -1.066,-0.396 0,0"
             style="fill:#e8d1b7;fill-opacity:1;fill-rule:nonzero;stroke:none"
             id="path658"
             inkscape:connector-curvature="0" /></g><g
           id="g660"
           transform="translate(201.2051,402.0649)"><path
             d="M 0,0 C 1.128,-0.001 2.056,-0.924 2.056,-2.059 2.056,-3.198 1.14,-4.115 -0.001,-4.115 -1.14,-4.118 -2.057,-3.2 -2.062,-2.06 -2.059,-0.919 -1.138,-0.006 0,0"
             style="fill:#e8d1b7;fill-opacity:1;fill-rule:nonzero;stroke:none"
             id="path662"
             inkscape:connector-curvature="0" /></g><g
           id="g664"
           transform="translate(213.8984,469.9331)"><path
             d="m 0,0 c 1.062,-0.387 1.617,-1.572 1.227,-2.638 -0.389,-1.07 -1.564,-1.618 -2.635,-1.228 -1.069,0.385 -1.62,1.562 -1.233,2.635 C -2.25,-0.161 -1.071,0.382 0,0"
             style="fill:#e8d1b7;fill-opacity:1;fill-rule:nonzero;stroke:none"
             id="path666"
             inkscape:connector-curvature="0" /></g><g
           id="g668"
           transform="translate(249.0371,529.3662)"><path
             d="M 0,0 C 0.868,-0.726 0.982,-2.029 0.251,-2.899 -0.479,-3.771 -1.771,-3.884 -2.646,-3.152 -3.518,-2.424 -3.633,-1.129 -2.9,-0.253 -2.167,0.618 -0.875,0.727 0,0"
             style="fill:#e8d1b7;fill-opacity:1;fill-rule:nonzero;stroke:none"
             id="path670"
             inkscape:connector-curvature="0" /></g><g
           id="g672"
           transform="translate(302.3843,573.1963)"><path
             d="m 0,0 c 0.57,-0.979 0.229,-2.242 -0.752,-2.808 -0.985,-0.57 -2.24,-0.234 -2.81,0.754 -0.573,0.98 -0.239,2.237 0.751,2.808 C -1.825,1.322 -0.571,0.983 0,0"
             style="fill:#e8d1b7;fill-opacity:1;fill-rule:nonzero;stroke:none"
             id="path674"
             inkscape:connector-curvature="0" /></g><g
           id="g676"
           transform="translate(367.5068,596.1382)"><path
             d="m 0,0 c 0.2,-1.114 -0.553,-2.185 -1.667,-2.382 -1.121,-0.198 -2.187,0.545 -2.385,1.67 -0.201,1.116 0.543,2.182 1.667,2.38 C -1.265,1.867 -0.203,1.119 0,0"
             style="fill:#e8d1b7;fill-opacity:1;fill-rule:nonzero;stroke:none"
             id="path678"
             inkscape:connector-curvature="0" /></g><g
           id="g680"
           transform="translate(590.0254,400)"><path
             d="m 0,0 c 0,-104.949 -85.078,-190.025 -190.025,-190.025 -104.948,0 -190.026,85.076 -190.026,190.025 0,104.949 85.078,190.026 190.026,190.026 C -85.078,190.026 0,104.949 0,0"
             style="fill:#d0ab73;fill-opacity:1;fill-rule:nonzero;stroke:none"
             id="path682"
             inkscape:connector-curvature="0" /></g><g
           id="g684"
           transform="translate(530.3691,400)"><path
             d="m 0,0 c 0,-71.998 -58.369,-130.369 -130.369,-130.369 -71.998,0 -130.37,58.371 -130.37,130.369 0,71.998 58.372,130.37 130.37,130.37 C -58.369,130.37 0,71.998 0,0"
             style="fill:#fdfceb;fill-opacity:1;fill-rule:nonzero;stroke:none"
             id="path686"
             inkscape:connector-curvature="0" /></g><g
           id="g688"
           transform="translate(522.791,400)"><path
             d="m 0,0 c 0,-67.812 -54.977,-122.791 -122.791,-122.791 -67.813,0 -122.792,54.979 -122.792,122.791 0,67.813 54.979,122.792 122.792,122.792 C -54.977,122.792 0,67.813 0,0"
             style="fill:#523510;fill-opacity:1;fill-rule:nonzero;stroke:none"
             id="path690"
             inkscape:connector-curvature="0" /></g><g
           id="g692"
           transform="translate(506.9268,400)"><path
             d="m 0,0 c 0,-59.052 -47.873,-106.928 -106.927,-106.928 -59.052,0 -106.926,47.876 -106.926,106.928 0,59.052 47.874,106.927 106.926,106.927 C -47.873,106.927 0,59.052 0,0"
             style="fill:#e6e6e6;fill-opacity:1;fill-rule:nonzero;stroke:none"
             id="path694"
             inkscape:connector-curvature="0" /></g></g></g><g
       id="g696"><g
         id="g698"
         clip-path="url(#clipPath700)"><g
           id="g704"><g
             id="g706"><path
               d="m 299.289,400 c 0,-55.621 45.09,-100.711 100.711,-100.711 l 0,0 c 55.621,0 100.711,45.09 100.711,100.711 l 0,0 c 0,55.621 -45.09,100.711 -100.711,100.711 l 0,0 c -55.621,0 -100.711,-45.09 -100.711,-100.711"
               style="fill:url(#radialGradient708);stroke:none"
               id="path718"
               inkscape:connector-curvature="0" /></g></g></g></g><g
       id="g720"><g
         id="g722"
         clip-path="url(#clipPath724)"><g
           id="g728"><g
             id="g730"><path
               d="m 315.816,400 c 0,-46.493 37.69,-84.186 84.184,-84.186 l 0,0 c 46.495,0 84.185,37.693 84.185,84.186 l 0,0 c 0,46.494 -37.69,84.185 -84.185,84.185 l 0,0 c -46.494,0 -84.184,-37.691 -84.184,-84.185"
               style="fill:url(#radialGradient732);stroke:none"
               id="path738"
               inkscape:connector-curvature="0" /></g></g></g></g><g
       id="g740"><g
         id="g742"
         clip-path="url(#clipPath744)"><g
           id="g748"
           transform="translate(484.1846,400)"><path
             d="m 0,0 c 0,-46.493 -37.69,-84.186 -84.185,-84.186 -46.494,0 -84.184,37.693 -84.184,84.186 0,46.494 37.69,84.185 84.184,84.185 C -37.69,84.185 0,46.494 0,0 Z"
             style="fill:none;stroke:#cccccc;stroke-width:1.59800005;stroke-linecap:butt;stroke-linejoin:miter;stroke-miterlimit:10;stroke-dasharray:none;stroke-opacity:1"
             id="path750"
             inkscape:connector-curvature="0" /></g><g
           id="g752"
           transform="translate(370.4146,295.7227)"><path
             d="M 0,0 C 0.008,0.006 0.017,0.012 0.023,0.019 0.058,-0.019 0.084,-0.054 0.117,-0.091 0.077,-0.062 0.041,-0.031 0,0 m 5.471,108.599 c 0.05,-0.485 -0.19,-0.799 -0.632,-0.962 -1.503,-0.553 -5.054,-2.416 -7.066,-8.064 0,0 0.624,3.062 3.359,6.112 1.43,1.494 2.829,2.234 3.637,2.531 0.44,0.162 0.679,0.477 0.632,0.962 -0.042,0.433 -0.109,1.082 -0.195,1.901 0.122,-1.095 0.212,-1.947 0.265,-2.48 m -0.724,0.955 c 0.045,-0.479 -0.191,-0.792 -0.623,-0.956 0.276,0.368 0.482,0.774 0.515,1.198 0.011,0.161 0.021,0.336 0.027,0.53 0.031,-0.302 0.057,-0.563 0.081,-0.772 M -2.76,2.9 c -1.273,1.851 -1.938,3.883 -2.188,5.759 0.003,-0.018 0.011,-0.037 0.014,-0.057 0.428,-1.884 1.218,-3.87 3.442,-6.67 0.219,-0.299 0.451,-0.61 0.707,-0.93 C -1.542,1.589 -2.198,2.226 -2.76,2.9 m 8.454,8.072 c -1.905,14.62 -9.498,82.179 -7.259,88.009 2.015,5.646 5.556,7.726 7.06,8.279 0.441,0.163 0.682,0.477 0.631,0.963 -0.508,5.132 -4.314,40.092 -4.314,40.092 l -0.165,0.047 -0.159,-0.059 -0.027,-2.453 c -0.232,2.125 -0.373,3.421 -0.373,3.421 l -0.17,0.048 -0.156,-0.061 -0.386,-32.526 c 0,0 0,-0.402 -0.349,-0.507 l -3.066,31.884 -0.173,0.064 -0.173,-0.079 -0.039,-2.57 -0.339,3.541 -0.176,0.063 -0.174,-0.078 -0.491,-32.506 c 0,0 0.002,-0.37 -0.277,-0.497 l -2.994,31.871 -0.171,0.054 -0.177,-0.066 -0.044,-2.59 -0.335,3.559 -0.173,0.053 -0.174,-0.067 -0.561,-32.523 c 0,0 -0.004,-0.4 -0.35,-0.503 l -2.89,31.908 -0.165,0.049 -0.161,-0.062 c 0,0 -0.029,-0.966 -0.079,-2.596 l -0.323,3.564 -0.166,0.049 -0.159,-0.061 c 0,0 -1.047,-35.152 -1.155,-40.308 -0.009,-0.487 0.253,-0.781 0.706,-0.909 0.006,-10e-4 0.017,-0.004 0.023,-0.007 l 0,-0.04 c -0.009,-0.487 0.253,-0.78 0.706,-0.909 1.086,-0.305 3.241,-1.29 5.28,-3.758 0.592,-0.847 1.164,-1.835 1.68,-2.985 2.689,-5.638 0.424,-73.583 -0.327,-88.307 -0.135,-2.669 0.689,-6.105 3.069,-8.959 0.988,-1.429 2.318,-2.757 4.062,-3.832 4.718,3.447 5.925,8.667 5.453,12.3"
             style="fill:#523510;fill-opacity:1;fill-rule:nonzero;stroke:none"
             id="path754"
             inkscape:connector-curvature="0" /></g><g
           id="g756"
           transform="translate(410.165,394.627)"><path
             d="m 0,0 c -1.118,-0.361 -3.327,-1.365 -5.334,-3.986 0.642,0.999 1.327,1.809 2.001,2.469 1.312,1.086 2.521,1.608 3.253,1.845 C 0.275,0.443 0.505,0.662 0.567,0.993 0.608,1.006 0.645,1.021 0.682,1.034 0.685,1.009 0.685,0.983 0.685,0.959 0.718,0.461 0.458,0.148 0,0 m -8.593,-97.946 c 0.115,0.148 0.225,0.29 0.335,0.435 1.351,1.16 2.358,2.484 3.086,3.856 -0.755,-1.539 -1.858,-3.024 -3.421,-4.291 M -19.282,1.955 c 0.137,-0.15 0.276,-0.299 0.416,-0.443 -0.004,-0.041 -0.007,-0.078 -0.01,-0.119 -0.222,0.122 -0.366,0.305 -0.406,0.562 m 13.614,46.274 c 2.097,-0.577 4.051,-1.738 5.791,-3.366 4.202,-4.494 6.939,-11.838 6.939,-20.135 0,-1.641 -0.109,-3.243 -0.312,-4.795 0.077,1.06 0.116,2.114 0.116,3.138 0,9.215 -2.936,17.155 -7.719,21.621 -1.426,1.53 -3.042,2.731 -4.815,3.537 M -18.444,1.226 c 0,0.03 -0.003,0.061 0,0.095 0.014,0.261 0.037,0.606 0.064,1.021 -2.73,2.769 -4.876,6.688 -6.116,11.281 1.446,-3.768 3.542,-6.474 6.089,-9.138 -0.034,-0.417 -0.06,-0.761 -0.084,-1.022 -0.032,-0.455 0.203,-0.743 0.623,-0.884 0.079,-0.06 0.159,-0.12 0.236,-0.18 0.047,-0.332 0.262,-0.55 0.611,-0.67 0.898,-0.67 1.669,-1.313 2.335,-1.938 1.281,-1.369 2.062,-2.672 2.543,-4.033 -0.704,1.114 -1.465,1.976 -2.207,2.64 -1.55,1.711 -3.136,2.489 -4.094,2.828 m 27.611,22.23 c 0,9.496 -3.331,17.831 -8.35,22.552 -2.926,3.116 -6.511,4.95 -10.381,4.95 -9.877,0 -17.885,-11.933 -17.885,-26.652 0,-9.1 3.063,-17.136 7.731,-21.944 -0.026,-0.448 -0.05,-0.816 -0.065,-1.097 -0.03,-0.488 0.221,-0.793 0.668,-0.937 0.056,-0.018 0.12,-0.04 0.182,-0.062 0.024,-0.4 0.266,-0.659 0.665,-0.787 0.803,-0.26 2.185,-0.862 3.639,-2.179 1.038,-1.143 2.062,-2.679 2.892,-4.751 2.468,-5.738 -2.463,-64.32 -3.793,-79.004 -0.29,-3.199 0.76,-7.568 4.296,-10.792 0.705,-0.768 1.526,-1.489 2.488,-2.134 4.848,3.26 6.261,8.428 5.932,12.077 -1.331,14.685 -6.265,73.266 -3.798,79.002 2.235,5.565 5.856,7.286 7.38,7.781 0.444,0.144 0.697,0.45 0.67,0.933 C 1.423,0.681 1.399,1.029 1.373,1.447 6.081,6.248 9.167,14.314 9.167,23.456"
             style="fill:#523510;fill-opacity:1;fill-rule:nonzero;stroke:none"
             id="path758"
             inkscape:connector-curvature="0" /></g><g
           id="g760"
           transform="translate(440.8223,373.2129)"><path
             d="m 0,0 -0.081,0 c -0.003,0.296 -0.01,0.592 -0.013,0.887 l 0.113,0 C 0.654,0.887 0.624,0 0,0 m -2.092,-76.415 c 0.08,0.102 0.156,0.201 0.233,0.302 2.098,1.821 3.365,4.036 4.022,6.209 -0.642,-2.295 -1.954,-4.636 -4.255,-6.511 M -7.233,66.381 c 1.951,3.846 3.904,5.509 5.427,5.423 -1.217,-0.362 -2.641,-1.537 -4.024,-3.668 -1.417,-2.091 -2.395,-4.355 -2.395,-4.355 0,0 0.08,0.81 0.992,2.6 M -0.985,0.687 -6.1,0.683 c -0.015,0 -0.03,0.002 -0.043,0.003 -0.123,0.257 -0.167,0.527 -0.167,0.686 0,0 0.522,-0.486 1.278,-0.486 l 4.45,0.001 c -0.076,-0.116 -0.211,-0.2 -0.403,-0.2 m -6.309,1.374 c 0,0 0.1,-0.092 0.27,-0.196 0.093,-0.285 0.166,-0.462 0.239,-0.797 0.014,-0.054 0.023,-0.12 0.037,-0.179 -0.42,0.315 -0.546,0.899 -0.546,1.172 m 6.921,69.765 c -1.427,1.739 -4.447,0.698 -7.153,-4.186 -6.346,-11.449 -8.65,-46.8 -0.548,-64.875 0.129,-0.426 0.215,-0.6 0.305,-1.008 1.886,-8.567 -0.153,-52.834 -1.409,-66.849 -0.326,-3.649 1.096,-8.818 5.949,-12.071 0.009,0.004 0.017,0.01 0.023,0.016 0.306,-0.244 0.624,-0.478 0.962,-0.705 4.845,3.266 6.251,8.434 5.919,12.083 -0.694,7.521 -2.409,38.274 -2.801,66.962 2.132,29.162 0.224,61.201 0.556,66.351 0.153,2.389 -0.596,3.896 -1.803,4.282"
             style="fill:#523510;fill-opacity:1;fill-rule:nonzero;stroke:none"
             id="path762"
             inkscape:connector-curvature="0" /></g><g
           id="g764"
           transform="translate(333.5132,529.063)"><path
             d="M 0,0 -0.627,1.725 0.567,2.253 C 1.541,2.67 2.101,3.068 2.248,3.447 2.395,3.827 2.187,4.852 1.625,6.523 0.49,9.936 -0.796,13.611 -2.23,17.549 c -0.762,2.093 -1.639,4.469 -2.632,7.128 -0.609,1.607 -1.06,2.557 -1.353,2.853 -0.147,0.147 -0.35,0.236 -0.609,0.266 -0.259,0.03 -1.274,-0.209 -3.042,-0.713 l -0.629,1.724 c 1.668,0.562 3.296,1.131 4.882,1.709 1.845,0.672 3.613,1.34 5.307,2.004 1.372,-1.468 2.768,-2.912 4.185,-4.332 1.005,-1.013 5.372,-5.271 13.1,-12.774 1.252,11.054 2.005,19.13 2.259,24.227 1.663,0.528 3.233,1.061 4.706,1.599 1.736,0.632 3.395,1.275 4.983,1.931 l 0.627,-1.725 c -1.753,-0.762 -2.708,-1.289 -2.866,-1.579 -0.159,-0.29 -0.079,-0.974 0.236,-2.054 0.533,-1.757 1.678,-5.05 3.437,-9.877 0.887,-2.435 1.847,-4.997 2.882,-7.687 1.035,-2.69 1.685,-4.189 1.952,-4.495 0.171,-0.17 0.364,-0.277 0.583,-0.322 0.217,-0.045 1.223,0.174 3.015,0.657 l 0.629,-1.725 C 37.17,13.653 35.175,12.979 33.436,12.346 31.684,11.708 29.32,10.792 26.343,9.599 l -0.629,1.725 1.198,0.482 c 0.942,0.39 1.493,0.741 1.65,1.055 0.157,0.313 0.095,0.965 -0.189,1.954 -0.283,0.991 -1.077,3.277 -2.382,6.86 l -4.516,12.39 C 20.907,29.066 20.234,22.54 19.458,14.488 19.143,11.178 18.932,8.496 18.826,6.441 L 17.476,5.95 c -1.886,1.98 -4.347,4.455 -7.386,7.427 l -12.431,12.01 1.016,-2.79 C 1.486,14.883 3.456,9.583 4.586,6.695 5.056,5.532 5.478,4.864 5.851,4.691 6.225,4.516 7.308,4.71 9.105,5.271 L 9.732,3.546 C 8.304,3.134 6.895,2.675 5.501,2.167 3.425,1.411 1.591,0.688 0,0"
             style="fill:#6e3127;fill-opacity:1;fill-rule:nonzero;stroke:none"
             id="path766"
             inkscape:connector-curvature="0" /></g><g
           id="g768"
           transform="translate(375.7949,542.9155)"><path
             d="M 0,0 -0.131,1.173 C 0.597,1.606 1.253,2.09 1.839,2.625 1.875,4.916 1.486,9.681 0.673,16.92 c -0.554,4.936 -0.971,8.203 -1.254,9.799 -0.138,0.849 -0.348,1.371 -0.626,1.568 -0.279,0.195 -1.375,0.266 -3.29,0.213 l -0.204,1.824 c 3.428,0.253 6.133,0.49 8.115,0.713 l 11.933,1.537 c 1.258,0.142 2.399,0.218 3.423,0.229 l 0.178,-0.224 c -0.139,-1.629 -0.133,-3.775 0.02,-6.437 l -1.717,-0.193 c -0.309,2.106 -0.52,3.226 -0.629,3.36 -0.111,0.134 -0.455,0.235 -1.035,0.302 -1.231,0.126 -3.084,0.049 -5.56,-0.229 -1.215,-0.136 -2.628,-0.346 -4.239,-0.63 0.314,-4.494 0.606,-8.068 0.874,-10.72 1.561,0.072 3.021,0.185 4.381,0.338 2.013,0.226 3.214,0.426 3.606,0.603 0.236,0.113 0.386,0.343 0.45,0.687 0.058,0.271 0.056,1.194 -0.003,2.771 l 1.868,0.21 c 0.203,-2.461 0.345,-4.061 0.43,-4.801 l 0.656,-4.884 -1.866,-0.21 c -0.316,1.895 -0.57,2.98 -0.762,3.253 -0.106,0.165 -0.316,0.267 -0.628,0.305 -0.743,0.079 -2.38,-0.023 -4.913,-0.308 C 9.084,15.907 8.156,15.751 7.096,15.53 7.154,14.762 7.227,13.981 7.316,13.188 7.778,9.063 8.208,5.897 8.601,3.692 l 4.316,0.418 c 2.452,0.276 4.678,0.658 6.68,1.146 0.211,1.379 0.387,2.939 0.529,4.678 l 1.803,0.202 C 21.886,7.521 21.968,5.023 22.178,2.643 20.871,2.395 19.61,2.202 18.394,2.065 17.598,1.975 16.024,1.825 13.672,1.611 11.48,1.417 9.465,1.217 7.627,1.01 5.209,0.739 2.666,0.402 0,0"
             style="fill:#6e3127;fill-opacity:1;fill-rule:nonzero;stroke:none"
             id="path770"
             inkscape:connector-curvature="0" /></g><g
           id="g772"
           transform="translate(399.8096,546.0693)"><path
             d="M 0,0 0.222,1.821 C 1.995,1.679 3.044,1.668 3.367,1.79 c 0.215,0.091 0.39,0.261 0.525,0.509 0.201,0.328 0.449,1.537 0.743,3.63 0.501,3.461 0.858,6.073 1.073,7.838 l 1.076,9.181 C 7.08,25.378 7.171,26.79 7.06,27.186 6.999,27.413 6.882,27.588 6.707,27.712 6.44,27.921 5.368,28.22 3.488,28.611 l 0.224,1.823 c 2.251,-0.349 3.921,-0.589 5.009,-0.722 1.202,-0.146 2.572,-0.276 4.113,-0.391 2.818,-4.668 6.031,-9.752 9.634,-15.251 2.395,-3.676 4.478,-6.724 6.245,-9.146 l 1.051,8.611 c 0.397,3.262 0.703,6.078 0.921,8.45 0.112,1.413 0.102,2.289 -0.034,2.63 -0.065,0.184 -0.209,0.326 -0.43,0.427 -0.224,0.102 -1.224,0.327 -3,0.675 l 0.221,1.823 c 1.564,-0.265 3.126,-0.492 4.684,-0.682 2.136,-0.26 4.074,-0.46 5.814,-0.599 l -0.221,-1.822 c -1.623,0.095 -2.608,0.098 -2.954,0.008 -0.196,-0.05 -0.36,-0.133 -0.49,-0.249 -0.13,-0.115 -0.238,-0.271 -0.319,-0.467 C 33.813,23.395 33.617,22.288 33.37,20.41 L 32.231,11.743 31.121,3.007 C 30.836,0.664 30.6,-1.685 30.416,-4.04 l -0.32,-0.269 c -1.72,0.533 -2.937,0.894 -3.652,1.083 -3.214,4.572 -7.073,10.293 -11.578,17.163 -2.277,3.475 -4.102,6.388 -5.474,8.74 L 8.363,14.246 C 8.084,11.949 7.782,9.177 7.46,5.932 7.213,3.543 7.146,2.158 7.262,1.777 7.301,1.611 7.393,1.475 7.542,1.369 7.797,1.177 8.82,0.905 10.612,0.555 L 10.391,-1.268 C 8.07,-0.882 6.406,-0.627 5.397,-0.504 4.562,-0.403 2.763,-0.234 0,0"
             style="fill:#6e3127;fill-opacity:1;fill-rule:nonzero;stroke:none"
             id="path774"
             inkscape:connector-curvature="0" /></g><g
           id="g776"
           transform="translate(445.416,568.2686)"><path
             d="M 0,0 0.684,1.703 C 3.402,0.501 5.805,-0.518 7.886,-1.354 9.211,-1.885 11.103,-2.59 13.562,-3.467 L 12.877,-5.17 c -1.243,0.5 -2.166,0.744 -2.767,0.733 C 9.907,-4.433 9.72,-4.491 9.547,-4.61 9.321,-4.74 9.092,-5.016 8.859,-5.441 8.475,-6.166 7.533,-8.315 6.034,-11.89 c -1.044,-2.485 -2.085,-5.018 -3.122,-7.6 -0.851,-2.123 -1.234,-3.779 -1.145,-4.968 0.087,-1.188 0.5,-2.214 1.238,-3.075 1.073,-1.232 2.41,-2.169 4.005,-2.81 2.176,-0.873 3.983,-1.183 5.421,-0.928 1.436,0.256 2.602,0.934 3.5,2.034 0.897,1.099 2.197,3.772 3.902,8.017 l 2.992,7.512 c 0.663,1.695 0.989,2.742 0.977,3.139 -0.004,0.222 -0.09,0.421 -0.254,0.597 -0.25,0.319 -1.177,0.865 -2.781,1.635 l 0.683,1.703 c 1.706,-0.795 3.295,-1.488 4.769,-2.079 1.27,-0.511 2.851,-1.09 4.742,-1.739 l -0.685,-1.704 c -1.339,0.538 -2.233,0.724 -2.682,0.56 -0.451,-0.165 -0.96,-0.856 -1.527,-2.071 -1.366,-2.969 -2.822,-6.364 -4.372,-10.185 -0.982,-2.447 -1.659,-4.035 -2.031,-4.765 -0.897,-1.806 -1.988,-3.216 -3.274,-4.231 -1.288,-1.014 -2.98,-1.594 -5.079,-1.74 -2.1,-0.146 -4.456,0.304 -7.064,1.352 -2.718,1.09 -4.812,2.403 -6.286,3.936 -1.472,1.533 -2.338,3.07 -2.599,4.611 -0.26,1.541 0.091,3.508 1.051,5.901 l 3.765,9.085 c 0.294,0.73 1.006,2.602 2.136,5.617 0.349,0.944 0.501,1.62 0.463,2.028 C 2.744,-1.825 2.638,-1.609 2.458,-1.411 2.279,-1.214 1.459,-0.743 0,0"
             style="fill:#6e3127;fill-opacity:1;fill-rule:nonzero;stroke:none"
             id="path778"
             inkscape:connector-curvature="0" /></g><g
           id="g780"
           transform="translate(272.0825,507.3369)"><path
             d="m 0,0 6.334,-1.547 4.864,4.339 0.485,-6.5 5.63,-3.286 -6.032,-2.472 -1.386,-6.37 -4.213,4.975 -6.487,-0.651 3.428,5.544 L 0,0 Z"
             style="fill:#fdfceb;fill-opacity:1;fill-rule:nonzero;stroke:none"
             id="path782"
             inkscape:connector-curvature="0" /></g><g
           id="g784"
           transform="translate(248.6611,470.5732)"><path
             d="m 0,0 6.517,0.144 3.576,5.451 2.152,-6.154 6.289,-1.717 -5.188,-3.949 0.31,-6.511 -5.357,3.714 -6.098,-2.307 1.876,6.242 L 0,0 Z"
             style="fill:#fdfceb;fill-opacity:1;fill-rule:nonzero;stroke:none"
             id="path786"
             inkscape:connector-curvature="0" /></g><g
           id="g788"
           transform="translate(235.5527,429)"><path
             d="m 0,0 6.258,1.826 2.043,6.191 3.671,-5.389 6.518,-0.03 -3.988,-5.157 1.986,-6.21 -6.136,2.202 -5.295,-3.807 0.197,6.516 L 0,0 Z"
             style="fill:#fdfceb;fill-opacity:1;fill-rule:nonzero;stroke:none"
             id="path790"
             inkscape:connector-curvature="0" /></g><g
           id="g792"
           transform="translate(233.6499,385.4492)"><path
             d="m 0,0 5.574,3.384 0.37,6.509 4.94,-4.255 6.306,1.658 -2.519,-6.013 3.524,-5.485 -6.496,0.54 L 7.57,-8.71 6.074,-2.366 0,0 Z"
             style="fill:#fdfceb;fill-opacity:1;fill-rule:nonzero;stroke:none"
             id="path794"
             inkscape:connector-curvature="0" /></g><g
           id="g796"
           transform="translate(243.0854,342.8916)"><path
             d="M 0,0 4.508,4.711 3.18,11.095 9.053,8.262 14.715,11.496 13.837,5.035 18.661,0.65 12.247,-0.511 9.565,-6.455 6.478,-0.714 0,0 Z"
             style="fill:#fdfceb;fill-opacity:1;fill-rule:nonzero;stroke:none"
             id="path798"
             inkscape:connector-curvature="0" /></g><g
           id="g800"
           transform="translate(527.918,507.3369)"><path
             d="m 0,0 -6.335,-1.547 -4.863,4.339 -0.486,-6.5 -5.63,-3.286 6.033,-2.472 1.385,-6.37 4.213,4.975 6.488,-0.651 -3.428,5.544 L 0,0 Z"
             style="fill:#fdfceb;fill-opacity:1;fill-rule:nonzero;stroke:none"
             id="path802"
             inkscape:connector-curvature="0" /></g><g
           id="g804"
           transform="translate(551.3389,470.5732)"><path
             d="m 0,0 -6.517,0.144 -3.576,5.451 -2.152,-6.154 -6.289,-1.717 5.188,-3.949 -0.31,-6.511 5.356,3.714 6.099,-2.307 -1.876,6.242 L 0,0 Z"
             style="fill:#fdfceb;fill-opacity:1;fill-rule:nonzero;stroke:none"
             id="path806"
             inkscape:connector-curvature="0" /></g><g
           id="g808"
           transform="translate(564.4473,429)"><path
             d="m 0,0 -6.258,1.826 -2.043,6.191 -3.671,-5.389 -6.518,-0.03 3.988,-5.157 -1.986,-6.21 6.136,2.202 5.294,-3.807 -0.196,6.516 L 0,0 Z"
             style="fill:#fdfceb;fill-opacity:1;fill-rule:nonzero;stroke:none"
             id="path810"
             inkscape:connector-curvature="0" /></g><g
           id="g812"
           transform="translate(566.3496,385.4492)"><path
             d="m 0,0 -5.573,3.384 -0.37,6.509 -4.941,-4.255 -6.305,1.658 2.518,-6.013 -3.524,-5.485 6.497,0.54 4.128,-5.048 1.497,6.344 L 0,0 Z"
             style="fill:#fdfceb;fill-opacity:1;fill-rule:nonzero;stroke:none"
             id="path814"
             inkscape:connector-curvature="0" /></g><g
           id="g816"
           transform="translate(556.9141,342.8916)"><path
             d="m 0,0 -4.508,4.711 1.328,6.384 -5.873,-2.833 -5.662,3.234 0.878,-6.461 -4.823,-4.385 6.414,-1.161 2.682,-5.944 3.086,5.741 L 0,0 Z"
             style="fill:#fdfceb;fill-opacity:1;fill-rule:nonzero;stroke:none"
             id="path818"
             inkscape:connector-curvature="0" /></g><g
           id="g820"
           transform="translate(723.8135,273.5859)"><path
             d="m 0,0 c -62.501,5.909 -125.125,10.102 -187.798,12.581 -1.264,-31.941 -2.529,-63.882 -3.79,-95.826 60.925,-2.409 121.804,-6.486 182.564,-12.23 -13.815,17.577 -27.857,35.065 -42.132,52.465 C -34.314,-28.546 -17.26,-14.208 0,0"
             style="fill:#471a00;fill-opacity:1;fill-rule:nonzero;stroke:none"
             id="path822"
             inkscape:connector-curvature="0" /></g><g
           id="g824"
           transform="translate(632.8008,310.2422)"><path
             d="m 0,0 c -31.858,2.142 -63.738,3.843 -95.63,5.105 -1.648,-41.668 -3.3,-83.337 -4.945,-125.006 31.118,8.334 62.492,16.229 94.103,23.68 C -4.314,-64.147 -2.157,-32.074 0,0"
             style="fill:#000000;fill-opacity:1;fill-rule:nonzero;stroke:none"
             id="path826"
             inkscape:connector-curvature="0" /></g><g
           id="g828"
           transform="translate(76.186,273.5859)"><path
             d="m 0,0 c 62.502,5.909 125.125,10.102 187.798,12.581 1.265,-31.941 2.529,-63.882 3.793,-95.826 C 130.663,-85.654 69.785,-89.731 9.025,-95.475 22.839,-77.898 36.881,-60.41 51.157,-43.01 34.315,-28.546 17.261,-14.208 0,0"
             style="fill:#471a00;fill-opacity:1;fill-rule:nonzero;stroke:none"
             id="path830"
             inkscape:connector-curvature="0" /></g><g
           id="g832"
           transform="translate(167.1992,310.2422)"><path
             d="m 0,0 c 31.858,2.142 63.738,3.843 95.63,5.105 1.649,-41.668 3.297,-83.337 4.948,-125.006 -31.121,8.334 -62.495,16.229 -94.106,23.68 C 4.314,-64.147 2.157,-32.074 0,0"
             style="fill:#000000;fill-opacity:1;fill-rule:nonzero;stroke:none"
             id="path834"
             inkscape:connector-curvature="0" /></g><g
           id="g836"
           transform="translate(632.8008,310.2422)"><path
             d="m 0,0 c -154.998,10.422 -310.523,10.424 -465.521,0.006 2.158,-32.073 4.315,-64.147 6.469,-96.22 150.69,10.127 301.891,10.127 452.58,-0.007 C -4.314,-64.147 -2.157,-32.074 0,0"
             style="fill:#6e3127;fill-opacity:1;fill-rule:nonzero;stroke:none"
             id="path838"
             inkscape:connector-curvature="0" /></g><g
           id="g840"
           transform="translate(632.1484,300.5645)"><path
             d="m 0,0 c -154.563,10.393 -309.652,10.396 -464.215,0.006 0.09,-1.367 0.184,-2.732 0.274,-4.099 C -309.562,6.284 -154.657,6.282 -0.275,-4.098 -0.185,-2.731 -0.091,-1.366 0,0"
             style="fill:#d0ab73;fill-opacity:1;fill-rule:nonzero;stroke:none"
             id="path842"
             inkscape:connector-curvature="0" /></g><g
           id="g844"
           transform="translate(627.041,224.6074)"><path
             d="m 0,0 c -151.164,10.165 -302.84,10.166 -454.004,0.007 0.094,-1.368 0.184,-2.732 0.275,-4.1 C -302.746,6.057 -151.255,6.054 -0.274,-4.097 -0.185,-2.731 -0.091,-1.365 0,0"
             style="fill:#d0ab73;fill-opacity:1;fill-rule:nonzero;stroke:none"
             id="path846"
             inkscape:connector-curvature="0" /></g><g
           id="g848"
           transform="translate(632.2578,302.1592)"><path
             d="m 0,0 c -154.639,10.397 -309.795,10.399 -464.434,0.005 0.094,-1.365 0.184,-2.732 0.278,-4.098 C -309.705,6.289 -154.729,6.288 -0.278,-4.099 -0.185,-2.731 -0.094,-1.367 0,0"
             style="fill:#fed178;fill-opacity:1;fill-rule:nonzero;stroke:none"
             id="path850"
             inkscape:connector-curvature="0" /></g><g
           id="g852"
           transform="translate(627.1504,226.2031)"><path
             d="m 0,0 c -151.236,10.168 -302.984,10.171 -454.22,0.005 0.091,-1.366 0.185,-2.733 0.275,-4.098 C -302.893,6.06 -151.33,6.06 -0.278,-4.1 -0.185,-2.731 -0.094,-1.367 0,0"
             style="fill:#fed178;fill-opacity:1;fill-rule:nonzero;stroke:none"
             id="path854"
             inkscape:connector-curvature="0" /></g><g
           id="g856"
           transform="translate(220.9253,253.7158)"><path
             d="M 0,0 C -0.034,0.61 -0.065,1.22 -0.097,1.832 1.621,2.067 2.601,2.257 2.847,2.4 3.006,2.497 3.119,2.641 3.181,2.834 3.315,3.19 3.356,4.375 3.313,6.387 3.228,9.502 3.138,11.956 3.044,13.745 c -0.122,2.416 -0.312,5.484 -0.562,9.206 -0.203,2.776 -0.434,4.471 -0.69,5.085 -0.068,0.185 -0.197,0.325 -0.384,0.417 -0.243,0.133 -1.218,0.243 -2.922,0.329 -0.034,0.613 -0.066,1.223 -0.097,1.833 3.107,0.063 5.111,0.113 6.01,0.159 3.752,0.241 7.505,0.476 11.257,0.705 2.445,0.117 4.237,-0.031 5.376,-0.436 1.133,-0.406 2.054,-1.099 2.75,-2.081 0.699,-0.981 1.077,-2.154 1.136,-3.52 C 25,23.698 24.547,22.146 23.57,20.784 22.589,19.42 20.841,18.173 18.319,17.035 20.017,14.775 21.715,12.512 23.408,10.248 24.725,8.516 26.042,6.78 27.356,5.046 28.097,4.205 28.64,3.699 28.989,3.532 29.339,3.365 29.901,3.29 30.672,3.311 30.697,2.75 30.722,2.189 30.747,1.629 30.31,1.604 29.87,1.576 29.433,1.551 25.662,1.354 23.233,1.2 22.149,1.092 20.763,3.053 18.7,5.896 15.934,9.616 c -1.642,2.204 -3.288,4.406 -4.935,6.608 0.121,0.254 0.218,0.522 0.296,0.802 0.602,-0.044 1.046,-0.056 1.327,-0.044 1.386,0.069 2.725,0.679 4.018,1.837 1.292,1.157 1.894,2.749 1.797,4.775 -0.083,1.764 -0.677,3.109 -1.788,4.037 -1.111,0.927 -2.735,1.339 -4.87,1.234 -0.675,-0.032 -1.589,-0.13 -2.741,-0.289 0.059,-2.15 0.115,-4.3 0.171,-6.449 0.072,-2.729 0.144,-5.454 0.219,-8.179 0.091,-1.849 0.281,-4.213 0.574,-7.09 0.225,-2.164 0.403,-3.375 0.534,-3.63 0.1,-0.185 0.269,-0.329 0.512,-0.434 0.319,-0.159 1.33,-0.24 3.035,-0.247 C 14.114,1.937 14.142,1.326 14.17,0.715 11.498,0.687 9.128,0.621 7.068,0.517 4.87,0.405 2.517,0.233 0,0"
             style="fill:#d0ab73;fill-opacity:1;fill-rule:nonzero;stroke:none"
             id="path858"
             inkscape:connector-curvature="0" /></g><g
           id="g860"
           transform="translate(259.249,268.2207)"><path
             d="M 0,0 C 1.345,-0.062 2.691,-0.063 4.033,-0.011 5.213,0.036 6.449,0.143 7.742,0.311 7.735,0.654 7.729,0.998 7.723,1.341 7.654,3.138 7.264,4.435 6.562,5.233 5.856,6.033 4.932,6.411 3.777,6.364 2.972,6.333 2.285,6.111 1.717,5.699 1.152,5.29 0.74,4.729 0.483,4.015 0.231,3.302 0.068,1.964 0,0 m 12.784,-7.978 c 0.221,-0.204 0.443,-0.409 0.668,-0.612 -0.309,-0.708 -0.616,-1.417 -0.921,-2.127 -1.049,-0.691 -2.176,-1.222 -3.39,-1.596 -1.215,-0.373 -2.514,-0.586 -3.897,-0.641 -3.24,-0.128 -5.828,0.687 -7.773,2.452 -1.945,1.764 -2.991,4.314 -3.134,7.65 -0.087,2.114 0.115,3.873 0.605,5.281 0.4,1.141 1.096,2.104 2.089,2.89 0.992,0.785 2.145,1.541 3.456,2.267 C 1.795,8.312 3.25,8.705 4.851,8.77 7.305,8.866 9.356,8.276 11.004,7.001 12.659,5.729 13.533,3.607 13.642,0.648 13.658,0.282 13.648,-0.273 13.617,-1.02 12.403,-1.283 11.191,-1.547 9.98,-1.812 8.85,-1.929 7.217,-2.027 5.073,-2.113 3.458,-2.178 1.845,-2.243 0.228,-2.309 0.556,-4.811 1.401,-6.67 2.759,-7.887 c 1.362,-1.217 3.056,-1.786 5.079,-1.706 0.847,0.032 1.683,0.186 2.507,0.457 0.824,0.275 1.636,0.658 2.439,1.158"
             style="fill:#d0ab73;fill-opacity:1;fill-rule:nonzero;stroke:none"
             id="path862"
             inkscape:connector-curvature="0" /></g><g
           id="g864"
           transform="translate(278.8911,263.3525)"><path
             d="M 0,0 C 0.141,-1.875 0.275,-2.919 0.403,-3.135 0.75,-3.72 1.38,-4.223 2.294,-4.643 c 0.915,-0.419 1.964,-0.608 3.15,-0.569 1.455,0.05 2.532,0.379 3.235,0.991 0.696,0.611 1.03,1.401 0.999,2.369 C 9.649,-1.015 9.372,-0.362 8.832,0.106 8.294,0.568 7.165,0.955 5.438,1.261 2.829,1.727 1.124,2.15 0.325,2.538 c -0.796,0.387 -1.439,0.981 -1.933,1.779 -0.49,0.798 -0.758,1.764 -0.799,2.901 -0.05,1.339 0.25,2.538 0.903,3.595 0.649,1.059 1.607,1.907 2.878,2.541 1.27,0.634 2.965,0.989 5.088,1.059 2.21,0.075 4.274,-0.209 6.194,-0.848 -0.162,-1.19 -0.238,-3.036 -0.228,-5.539 -0.59,-0.019 -1.18,-0.038 -1.77,-0.056 -0.14,1.57 -0.294,2.491 -0.471,2.762 -0.238,0.414 -0.675,0.757 -1.312,1.028 -0.877,0.365 -1.813,0.53 -2.8,0.498 C 4.82,12.216 3.855,11.909 3.178,11.343 2.504,10.773 2.179,10.077 2.207,9.25 2.235,8.48 2.569,7.883 3.209,7.455 3.853,7.012 5.363,6.621 7.733,6.278 9.369,6.04 10.502,5.808 11.139,5.582 c 1.058,-0.406 1.87,-1.019 2.444,-1.839 0.568,-0.824 0.874,-1.877 0.915,-3.159 0.078,-2.465 -0.84,-4.384 -2.745,-5.76 -1.9,-1.374 -4.192,-2.107 -6.88,-2.198 -0.89,-0.031 -1.879,0.038 -2.969,0.2 -1.095,0.165 -2.281,0.418 -3.574,0.762 -0.116,0.118 -0.231,0.235 -0.347,0.354 0.132,1.272 0.172,3.27 0.119,5.991 C -1.264,-0.044 -0.634,-0.022 0,0"
             style="fill:#d0ab73;fill-opacity:1;fill-rule:nonzero;stroke:none"
             id="path866"
             inkscape:connector-curvature="0" /></g><g
           id="g868"
           transform="translate(295.3491,274.3906)"><path
             d="M 0,0 C 0.974,0.664 1.951,1.327 2.925,1.99 2.816,4.567 2.676,6.821 2.501,8.754 4.527,9.429 6.437,10.226 8.235,11.151 8.463,10.989 8.694,10.828 8.922,10.668 8.654,8.545 8.507,5.707 8.488,2.151 9.178,2.053 9.862,2.014 10.533,2.033 12.057,2.075 13.424,2.212 14.629,2.448 14.698,2.407 14.766,2.365 14.835,2.323 14.772,2.06 14.713,1.796 14.654,1.531 14.448,0.709 14.308,-0.045 14.22,-0.731 c -1.751,0.07 -3.037,0.093 -3.862,0.07 C 9.75,-0.677 9.15,-0.724 8.57,-0.799 8.582,-2.272 8.604,-3.571 8.635,-4.694 8.772,-9.596 9,-12.378 9.316,-13.039 c 0.318,-0.662 1.033,-0.979 2.147,-0.949 0.329,0.009 0.684,0.056 1.059,0.138 0.377,0.083 0.78,0.196 1.208,0.339 0.134,-0.274 0.269,-0.546 0.399,-0.821 -0.864,-0.999 -1.707,-2.033 -2.525,-3.105 -0.546,-0.104 -1.052,-0.182 -1.511,-0.238 -0.459,-0.056 -0.881,-0.091 -1.271,-0.103 -1.248,-0.034 -2.301,0.146 -3.15,0.547 -0.852,0.397 -1.476,0.926 -1.876,1.585 -0.399,0.659 -0.621,1.653 -0.658,2.98 -0.022,0.7 -0.038,2.539 -0.054,5.515 0,2.612 -0.027,4.676 -0.071,6.193 C 2.632,-0.955 2.251,-0.951 1.87,-0.948 1.393,-0.964 0.781,-1.025 0.035,-1.136 0.025,-0.757 0.013,-0.377 0,0"
             style="fill:#d0ab73;fill-opacity:1;fill-rule:nonzero;stroke:none"
             id="path870"
             inkscape:connector-curvature="0" /></g><g
           id="g872"
           transform="translate(323.7422,268.3428)"><path
             d="m 0,0 c -2.601,-0.613 -4.29,-1.257 -5.061,-1.925 -0.774,-0.67 -1.145,-1.552 -1.117,-2.647 0.022,-0.891 0.29,-1.586 0.805,-2.085 0.521,-0.5 1.162,-0.74 1.933,-0.722 1.173,0.027 2.357,0.704 3.562,2.032 C 0.081,-3.565 0.041,-1.782 0,0 m 8.635,-8.802 c 0.012,-0.596 0.025,-1.194 0.037,-1.792 -0.574,0.011 -1.149,0.022 -1.723,0.031 -0.911,0.025 -1.82,0.029 -2.728,0.009 -1.402,-0.029 -2.729,-0.102 -3.981,-0.218 -0.074,0.078 -0.15,0.156 -0.227,0.234 0.052,1.002 0.106,2.001 0.155,3.002 -1.526,-1.172 -3.049,-2.345 -4.573,-3.517 -0.827,-0.209 -1.558,-0.321 -2.198,-0.337 -1.57,-0.038 -2.797,0.39 -3.687,1.286 -0.883,0.896 -1.348,2.224 -1.392,3.987 -0.056,2.17 0.49,3.715 1.645,4.633 1.49,1.202 4.82,2.329 9.996,3.362 C -0.109,3.604 -0.443,4.847 -1.04,5.609 -1.882,6.658 -3.163,7.163 -4.876,7.122 -5.276,7.113 -5.694,7.057 -6.112,6.95 -6.537,6.846 -6.962,6.687 -7.389,6.473 -7.705,5.685 -8.023,4.896 -8.338,4.109 c -0.518,0.113 -1.037,0.222 -1.555,0.334 0.006,0.328 0.013,0.657 0.022,0.984 -0.016,0.32 -0.031,0.64 -0.047,0.962 -0.016,0.29 -0.031,0.581 -0.047,0.872 2.254,1.441 3.881,2.346 4.873,2.72 0.728,0.28 1.739,0.435 3.041,0.464 1.767,0.041 3.209,-0.187 4.327,-0.681 C 3.394,9.271 4.218,8.582 4.742,7.703 5.27,6.822 5.547,5.527 5.585,3.819 5.601,3.104 5.597,1.827 5.576,-0.015 5.557,-1.912 5.557,-3.438 5.579,-4.593 5.619,-6.417 5.694,-7.525 5.803,-7.917 5.872,-8.149 6.016,-8.331 6.253,-8.456 6.484,-8.584 7.28,-8.697 8.635,-8.802"
             style="fill:#d0ab73;fill-opacity:1;fill-rule:nonzero;stroke:none"
             id="path874"
             inkscape:connector-curvature="0" /></g><g
           id="g876"
           transform="translate(333.9443,275.5059)"><path
             d="M 0,0 C -0.01,0.561 -0.019,1.12 -0.031,1.683 2.357,1.946 4.586,2.403 6.652,3.05 7.389,3.318 8.126,3.585 8.863,3.852 9.131,3.856 9.269,3.691 9.275,3.355 9.25,2.925 9.228,2.494 9.206,2.063 9.009,-1.296 8.935,-4.536 8.987,-7.655 c 0.035,-2.014 0.163,-3.35 0.378,-4.011 0.222,-0.659 0.606,-1.168 1.156,-1.523 0.549,-0.355 1.279,-0.527 2.185,-0.513 1.058,0.017 1.979,0.315 2.769,0.896 0.786,0.58 1.267,1.216 1.445,1.905 0.175,0.686 0.24,2.643 0.197,5.869 -0.041,2.581 -0.103,4.091 -0.2,4.527 -0.063,0.234 -0.168,0.393 -0.322,0.479 -0.224,0.113 -1.242,0.201 -3.053,0.26 -0.009,0.56 -0.019,1.12 -0.025,1.682 3.053,0.381 5.292,0.806 6.718,1.277 0.79,0.287 1.577,0.575 2.367,0.861 C 22.854,4.058 22.979,3.905 22.986,3.6 22.973,3.402 22.961,3.204 22.951,3.006 22.742,0.463 22.677,-4.145 22.764,-10.815 c 0.025,-2.045 0.103,-3.331 0.228,-3.853 0.075,-0.248 0.196,-0.422 0.359,-0.521 0.237,-0.13 1.17,-0.241 2.797,-0.339 0.006,-0.596 0.016,-1.196 0.022,-1.792 -1.705,0.067 -3.39,0.091 -5.064,0.069 -1.357,-0.02 -2.622,-0.08 -3.793,-0.185 -0.068,0.131 -0.137,0.261 -0.206,0.391 0.06,0.731 0.1,1.873 0.131,3.434 -1.37,-1.112 -2.691,-2.335 -3.964,-3.665 -1.046,-0.468 -2.086,-0.71 -3.109,-0.728 -1.368,-0.021 -2.561,0.229 -3.584,0.749 -1.018,0.522 -1.783,1.212 -2.279,2.07 -0.5,0.861 -0.765,2.077 -0.793,3.653 l 0,2.385 c 0.018,1.473 0.018,2.668 0.003,3.588 C 3.465,-2.963 3.384,-1.411 3.269,-0.902 3.19,-0.568 3.031,-0.334 2.785,-0.2 2.544,-0.065 1.617,0 0,0"
             style="fill:#d0ab73;fill-opacity:1;fill-rule:nonzero;stroke:none"
             id="path878"
             inkscape:connector-curvature="0" /></g><g
           id="g880"
           transform="translate(361.7876,258.2041)"><path
             d="m 0,0 c -0.009,0.599 -0.016,1.196 -0.022,1.792 1.508,0.091 2.366,0.187 2.588,0.291 0.178,0.09 0.318,0.23 0.418,0.421 0.163,0.352 0.253,1.124 0.266,2.323 0.041,2.129 0.05,4.07 0.031,5.82 -0.034,3.371 -0.1,5.369 -0.197,5.995 -0.046,0.365 -0.184,0.622 -0.412,0.772 -0.225,0.151 -1.18,0.246 -2.872,0.287 -0.006,0.561 -0.012,1.12 -0.019,1.683 3.013,0.312 5.164,0.68 6.456,1.105 0.768,0.287 1.533,0.574 2.298,0.862 0.215,0 0.315,-0.138 0.319,-0.414 C 8.85,20.835 8.844,20.732 8.841,20.631 8.8,19.712 8.785,18.395 8.8,16.674 c 0.756,0.722 1.596,1.631 2.513,2.731 0.681,0.822 1.277,1.359 1.783,1.609 0.506,0.253 1.186,0.381 2.038,0.386 0.481,0.003 0.965,-0.075 1.461,-0.231 C 16.471,19.71 16.393,17.726 16.364,15.22 16.027,15.101 15.693,14.982 15.356,14.863 15.01,15.43 14.632,15.825 14.22,16.05 13.805,16.274 13.274,16.384 12.612,16.378 11.716,16.371 10.948,16.139 10.311,15.68 9.674,15.223 9.266,14.699 9.091,14.114 8.975,13.674 8.928,12.185 8.95,9.641 8.981,5.944 9.056,3.789 9.163,3.177 9.225,2.77 9.369,2.491 9.593,2.348 9.94,2.131 11.063,1.986 12.968,1.914 12.971,1.316 12.974,0.719 12.98,0.122 l -2.5,0.047 C 8.891,0.198 7.514,0.208 6.353,0.197 5.257,0.187 3.977,0.153 2.519,0.094 1.68,0.062 0.84,0.031 0,0"
             style="fill:#d0ab73;fill-opacity:1;fill-rule:nonzero;stroke:none"
             id="path882"
             inkscape:connector-curvature="0" /></g><g
           id="g884"
           transform="translate(392.4751,269.1836)"><path
             d="m 0,0 c -2.613,-0.56 -4.314,-1.17 -5.098,-1.823 -0.787,-0.653 -1.174,-1.527 -1.171,-2.623 0.003,-0.892 0.259,-1.591 0.765,-2.102 0.512,-0.51 1.143,-0.763 1.917,-0.76 1.173,0.003 2.373,0.658 3.599,1.96 C 0.009,-3.564 0.006,-1.782 0,0 m 8.457,-8.972 0,-1.792 c -0.575,0.022 -1.149,0.044 -1.72,0.066 -0.912,0.044 -1.82,0.064 -2.729,0.062 -1.402,0 -2.731,-0.047 -3.983,-0.137 -0.075,0.08 -0.15,0.16 -0.225,0.239 0.075,0.999 0.147,1.998 0.219,2.997 -1.552,-1.142 -3.101,-2.282 -4.645,-3.427 -0.834,-0.19 -1.561,-0.287 -2.205,-0.29 -1.57,-0.006 -2.788,0.446 -3.658,1.359 -0.865,0.914 -1.305,2.251 -1.315,4.014 -0.012,2.171 0.568,3.704 1.739,4.598 1.511,1.174 4.867,2.234 10.062,3.163 -0.032,1.726 -0.341,2.976 -0.924,3.751 -0.822,1.065 -2.092,1.597 -3.806,1.59 C -5.136,7.218 -5.551,7.17 -5.972,7.074 -6.397,6.978 -6.828,6.826 -7.258,6.62 -7.589,5.84 -7.92,5.058 -8.254,4.277 -8.77,4.399 -9.285,4.521 -9.799,4.643 c 0.012,0.328 0.025,0.655 0.037,0.983 -0.006,0.319 -0.016,0.64 -0.025,0.961 -0.009,0.291 -0.019,0.583 -0.028,0.874 2.282,1.395 3.927,2.268 4.923,2.621 0.733,0.264 1.748,0.401 3.053,0.404 1.764,0.003 3.203,-0.253 4.308,-0.769 C 3.581,9.2 4.389,8.496 4.895,7.606 5.407,6.715 5.66,5.417 5.66,3.707 5.66,2.992 5.631,1.714 5.572,-0.125 5.516,-2.022 5.488,-3.549 5.485,-4.703 5.488,-6.527 5.541,-7.637 5.644,-8.032 5.707,-8.267 5.847,-8.447 6.081,-8.578 6.312,-8.709 7.105,-8.841 8.457,-8.972"
             style="fill:#d0ab73;fill-opacity:1;fill-rule:nonzero;stroke:none"
             id="path886"
             inkscape:connector-curvature="0" /></g><g
           id="g888"
           transform="translate(403.208,258.417)"><path
             d="M 0,0 0,1.792 C 1.623,1.879 2.538,2.004 2.747,2.173 2.956,2.34 3.084,2.714 3.128,3.298 3.218,4.77 3.269,7.367 3.274,11.089 3.277,12.926 3.256,14.51 3.196,15.837 3.168,16.653 3.105,17.136 3.021,17.282 2.946,17.397 2.828,17.485 2.662,17.544 2.5,17.604 1.62,17.657 0.016,17.7 l 0,1.683 c 0.811,0 2.075,0.169 3.793,0.503 1.713,0.337 3.162,0.722 4.329,1.161 0.203,0.065 0.409,0.131 0.612,0.197 0.209,0 0.313,-0.169 0.313,-0.503 C 9.053,20.676 9.047,20.61 9.037,20.544 8.99,20.136 8.966,19.087 8.959,17.397 c 1.161,0.944 2.319,1.886 3.481,2.826 0.437,0.362 0.886,0.609 1.352,0.737 0.658,0.172 1.458,0.256 2.4,0.249 1.577,-0.009 2.878,-0.284 3.881,-0.824 1.005,-0.54 1.736,-1.281 2.2,-2.226 0.462,-0.945 0.684,-2.411 0.672,-4.396 C 22.938,12.887 22.907,11.872 22.854,10.719 22.761,8.354 22.708,6.311 22.695,4.586 22.686,3.608 22.767,2.928 22.926,2.549 23.045,2.285 23.21,2.107 23.426,2.02 23.638,1.929 24.453,1.813 25.864,1.67 25.86,1.073 25.854,0.476 25.852,-0.122 c -0.915,0.037 -1.831,0.075 -2.745,0.109 -0.586,0.021 -1.173,0.039 -1.76,0.058 -1.534,-0.032 -3.066,-0.067 -4.599,-0.102 -0.081,0.096 -0.162,0.191 -0.243,0.286 0.405,2.769 0.615,5.612 0.631,8.531 0.021,3.705 -0.195,5.987 -0.654,6.852 -0.589,1.112 -1.675,1.673 -3.261,1.68 C 12.203,17.298 11.322,17.048 10.57,16.549 9.824,16.046 9.334,15.512 9.109,14.944 9.003,14.71 8.95,13.972 8.943,12.729 8.925,7.442 8.938,4.412 8.978,3.646 9.021,2.878 9.144,2.407 9.353,2.231 9.618,2.011 10.617,1.854 12.34,1.759 12.34,1.161 12.337,0.564 12.334,-0.033 9.746,0.065 7.561,0.117 5.775,0.122 4.72,0.125 2.797,0.086 0,0"
             style="fill:#d0ab73;fill-opacity:1;fill-rule:nonzero;stroke:none"
             id="path890"
             inkscape:connector-curvature="0" /></g><g
           id="g892"
           transform="translate(430.5078,275.8525)"><path
             d="M 0,0 C 0.999,0.626 1.998,1.25 3,1.873 2.994,4.451 2.94,6.712 2.841,8.65 4.892,9.241 6.834,9.964 8.666,10.816 8.888,10.648 9.112,10.477 9.334,10.308 8.981,8.197 8.726,5.367 8.563,1.814 9.25,1.69 9.931,1.624 10.602,1.616 12.128,1.598 13.495,1.683 14.71,1.869 14.778,1.826 14.844,1.782 14.913,1.737 14.841,1.477 14.77,1.214 14.697,0.952 14.463,0.14 14.292,-0.609 14.176,-1.291 12.431,-1.152 11.145,-1.077 10.324,-1.068 9.712,-1.062 9.112,-1.084 8.529,-1.135 8.485,-2.608 8.454,-3.907 8.441,-5.029 c -0.056,-4.905 0.063,-7.693 0.35,-8.367 0.293,-0.674 0.993,-1.019 2.11,-1.034 0.328,-0.003 0.684,0.029 1.065,0.097 0.378,0.069 0.787,0.166 1.218,0.291 0.125,-0.278 0.246,-0.556 0.368,-0.834 -0.906,-0.965 -1.789,-1.967 -2.648,-3.006 -0.549,-0.081 -1.058,-0.14 -1.52,-0.178 -0.459,-0.038 -0.88,-0.056 -1.271,-0.05 -1.248,0.012 -2.291,0.236 -3.125,0.668 -0.836,0.431 -1.441,0.983 -1.813,1.66 -0.371,0.672 -0.556,1.675 -0.54,3.003 0.006,0.7 0.062,2.536 0.166,5.511 0.099,2.61 0.155,4.673 0.171,6.192 C 2.591,-1.059 2.21,-1.04 1.829,-1.021 1.352,-1.019 0.74,-1.056 -0.01,-1.137 -0.006,-0.756 -0.003,-0.378 0,0"
             style="fill:#d0ab73;fill-opacity:1;fill-rule:nonzero;stroke:none"
             id="path894"
             inkscape:connector-curvature="0" /></g><g
           id="g896"
           transform="translate(458.0078,257.9268)"><path
             d="m 0,0 c 0.01,0.612 0.021,1.224 0.031,1.836 1.821,0.04 2.881,0.137 3.197,0.293 0.212,0.112 0.372,0.3 0.481,0.559 0.168,0.346 0.293,1.577 0.371,3.687 0.144,3.494 0.232,6.129 0.263,7.907 0.04,3.081 0.081,6.162 0.124,9.244 0.044,2.448 -0.009,3.86 -0.168,4.243 -0.084,0.218 -0.225,0.381 -0.418,0.486 -0.291,0.182 -1.424,0.369 -3.391,0.564 0.009,0.612 0.022,1.222 0.031,1.834 2.345,-0.113 4.081,-0.181 5.21,-0.2 1.247,-0.025 2.664,-0.016 4.255,0.026 3.381,-4.359 7.19,-9.098 11.426,-14.22 2.814,-3.425 5.238,-6.26 7.277,-8.501 0.076,2.89 0.147,5.781 0.222,8.672 0.084,3.284 0.122,6.116 0.103,8.498 -0.022,1.417 -0.121,2.29 -0.293,2.616 -0.084,0.176 -0.247,0.306 -0.485,0.384 -0.237,0.078 -1.286,0.207 -3.143,0.384 0.015,0.612 0.031,1.223 0.047,1.835 1.63,-0.112 3.25,-0.19 4.87,-0.231 2.214,-0.056 4.22,-0.073 6.018,-0.05 -0.015,-0.611 -0.034,-1.223 -0.049,-1.836 -1.676,-0.055 -2.682,-0.144 -3.025,-0.268 -0.2,-0.067 -0.356,-0.165 -0.481,-0.291 -0.121,-0.128 -0.212,-0.294 -0.281,-0.495 -0.116,-0.349 -0.206,-1.468 -0.275,-3.361 -0.103,-2.911 -0.206,-5.824 -0.312,-8.736 -0.09,-2.934 -0.181,-5.868 -0.275,-8.803 -0.059,-2.358 -0.068,-4.718 -0.027,-7.081 -0.101,-0.1 -0.2,-0.2 -0.297,-0.299 -1.802,0.369 -3.072,0.613 -3.819,0.733 -3.714,4.242 -8.216,9.562 -13.52,15.947 -2.682,3.229 -4.854,5.946 -6.506,8.146 C 7.108,20.691 7.056,17.859 7.002,15.031 6.955,12.715 6.943,9.928 6.952,6.668 6.955,4.265 7.03,2.882 7.187,2.513 7.246,2.353 7.355,2.226 7.514,2.136 7.795,1.97 8.863,1.805 10.721,1.636 10.708,1.024 10.695,0.412 10.683,-0.2 8.285,-0.049 6.568,0.034 5.535,0.053 4.674,0.068 2.831,0.053 0,0"
             style="fill:#d0ab73;fill-opacity:1;fill-rule:nonzero;stroke:none"
             id="path898"
             inkscape:connector-curvature="0" /></g><g
           id="g900"
           transform="translate(508.2559,267.4795)"><path
             d="m 0,0 c -2.631,-0.472 -4.352,-1.024 -5.156,-1.65 -0.809,-0.626 -1.228,-1.488 -1.262,-2.583 -0.025,-0.89 0.206,-1.599 0.693,-2.126 0.491,-0.526 1.121,-0.801 1.892,-0.825 1.174,-0.036 2.392,0.579 3.665,1.838 C -0.112,-3.563 -0.056,-1.782 0,0 m 8.148,-9.255 c -0.018,-0.598 -0.041,-1.193 -0.062,-1.79 -0.571,0.04 -1.143,0.083 -1.717,0.123 -0.908,0.073 -1.817,0.127 -2.725,0.156 -1.399,0.045 -2.732,0.045 -3.984,-0.002 -0.071,0.082 -0.143,0.164 -0.215,0.246 0.106,0.996 0.212,1.994 0.319,2.989 -1.59,-1.089 -3.176,-2.177 -4.761,-3.267 -0.837,-0.164 -1.57,-0.236 -2.211,-0.217 -1.573,0.047 -2.775,0.54 -3.611,1.483 -0.834,0.943 -1.228,2.295 -1.177,4.055 0.061,2.169 0.689,3.682 1.892,4.538 C -8.553,0.18 -5.163,1.124 0.06,1.879 0.085,3.605 -0.181,4.863 -0.736,5.656 -1.523,6.749 -2.774,7.323 -4.488,7.375 -4.889,7.388 -5.307,7.352 -5.731,7.271 -6.159,7.189 -6.593,7.052 -7.033,6.861 -7.389,6.092 -7.748,5.322 -8.104,4.555 -8.615,4.692 -9.128,4.831 -9.64,4.97 c 0.026,0.328 0.05,0.655 0.073,0.982 0.003,0.319 0.003,0.641 0.005,0.961 0,0.292 0.003,0.582 0.003,0.874 2.327,1.317 3.999,2.134 5.011,2.454 0.743,0.24 1.761,0.342 3.063,0.3 C 0.281,10.486 1.708,10.18 2.798,9.628 3.891,9.073 4.674,8.343 5.151,7.437 5.629,6.527 5.838,5.22 5.782,3.514 5.757,2.797 5.688,1.523 5.566,-0.315 5.445,-2.21 5.36,-3.733 5.323,-4.886 5.264,-6.71 5.279,-7.821 5.37,-8.218 5.423,-8.454 5.558,-8.642 5.788,-8.78 6.013,-8.919 6.8,-9.078 8.148,-9.255"
             style="fill:#d0ab73;fill-opacity:1;fill-rule:nonzero;stroke:none"
             id="path902"
             inkscape:connector-curvature="0" /></g><g
           id="g904"
           transform="translate(518.7305,256.3516)"><path
             d="m 0,0 c 0.019,0.598 0.04,1.194 0.062,1.791 1.536,0.004 2.413,0.071 2.635,0.202 0.218,0.132 0.366,0.378 0.434,0.74 0.146,0.71 0.265,2.4 0.362,5.069 0.199,5.611 0.234,8.655 0.103,9.126 -0.103,0.398 -0.618,0.622 -1.536,0.669 -0.481,0.03 -0.964,0.061 -1.446,0.092 0.019,0.563 0.041,1.122 0.06,1.684 1.842,0.126 3.418,0.309 4.723,0.549 1.311,0.24 2.492,0.548 3.549,0.921 0.216,0.065 0.369,0.096 0.475,0.094 C 9.634,20.929 9.727,20.743 9.715,20.379 9.705,20.104 9.674,19.731 9.618,19.267 9.587,19.063 9.562,18.701 9.543,18.177 9.53,17.915 9.521,17.652 9.512,17.391 c 1.258,0.848 2.512,1.698 3.771,2.546 0.799,0.538 1.988,0.776 3.571,0.714 1.598,-0.064 2.853,-0.417 3.771,-1.06 0.915,-0.642 1.593,-1.636 2.029,-2.98 1.312,0.929 2.622,1.86 3.934,2.788 0.759,0.536 1.795,0.776 3.109,0.72 2.348,-0.101 4.052,-0.742 5.105,-1.914 1.057,-1.172 1.526,-3.02 1.411,-5.545 C 36.172,12.057 36.128,11.452 36.088,10.847 35.938,8.837 35.825,7.045 35.754,5.47 35.66,3.383 35.666,2.031 35.772,1.413 c 0.076,-0.341 0.215,-0.584 0.425,-0.732 0.209,-0.149 1.039,-0.3 2.491,-0.454 -0.025,-0.597 -0.053,-1.193 -0.082,-1.79 -1.841,0.172 -3.455,0.288 -4.826,0.35 -1.333,0.06 -2.718,0.078 -4.155,0.054 -0.084,0.139 -0.168,0.284 -0.249,0.426 0.524,3.115 0.849,6.167 0.979,9.154 0.154,3.542 -0.03,5.767 -0.551,6.672 -0.525,0.905 -1.499,1.388 -2.919,1.451 -0.928,0.038 -1.755,-0.152 -2.479,-0.577 -0.721,-0.422 -1.209,-0.921 -1.458,-1.495 -0.166,-0.404 -0.294,-1.677 -0.384,-3.822 -0.156,-3.855 -0.215,-6.521 -0.171,-8 0.015,-0.657 0.133,-1.085 0.361,-1.275 0.222,-0.193 1.165,-0.381 2.822,-0.567 -0.024,-0.597 -0.05,-1.195 -0.074,-1.791 -1.942,0.17 -3.853,0.292 -5.726,0.368 -2.329,0.095 -4.426,0.133 -6.291,0.119 0.023,0.598 0.047,1.194 0.07,1.79 1.473,-0.056 2.343,0.116 2.612,0.523 0.272,0.406 0.469,2.229 0.597,5.471 0.146,3.691 0.165,5.994 0.049,6.905 -0.109,0.912 -0.449,1.612 -1.001,2.102 -0.559,0.488 -1.346,0.754 -2.361,0.793 -0.746,0.029 -1.432,-0.113 -2.06,-0.425 C 10.77,16.351 10.232,15.895 9.793,15.297 9.543,14.971 9.402,14.456 9.377,13.757 9.374,13.479 9.371,13.201 9.368,12.923 9.396,12.514 9.374,11.365 9.306,9.482 9.265,8.621 9.225,7.76 9.188,6.899 9.094,4.418 9.084,2.949 9.156,2.493 9.19,2.199 9.306,1.984 9.502,1.844 9.699,1.705 10.504,1.544 11.928,1.356 11.903,0.761 11.881,0.164 11.859,-0.434 10.08,-0.277 8.135,-0.16 6.012,-0.082 5.272,-0.056 3.265,-0.026 0,0"
             style="fill:#d0ab73;fill-opacity:1;fill-rule:nonzero;stroke:none"
             id="path906"
             inkscape:connector-curvature="0" /></g><g
           id="g908"
           transform="translate(566.0439,267.0859)"><path
             d="M 0,0 C 1.336,-0.181 2.676,-0.306 4.018,-0.371 5.194,-0.431 6.435,-0.436 7.739,-0.384 7.764,-0.04 7.789,0.302 7.814,0.644 7.904,2.439 7.636,3.769 7.006,4.627 6.375,5.485 5.485,5.944 4.333,6 3.527,6.041 2.825,5.882 2.22,5.522 1.62,5.165 1.158,4.643 0.843,3.955 0.527,3.268 0.243,1.948 0,0 m 12.019,-9.091 c 0.203,-0.222 0.406,-0.446 0.609,-0.668 -0.368,-0.679 -0.737,-1.357 -1.106,-2.037 -1.108,-0.595 -2.278,-1.022 -3.521,-1.284 -1.242,-0.263 -2.557,-0.36 -3.937,-0.29 -3.24,0.16 -5.744,1.204 -7.523,3.137 -1.779,1.93 -2.591,4.564 -2.435,7.901 0.1,2.11 0.456,3.847 1.074,5.204 0.503,1.101 1.28,1.998 2.341,2.691 1.055,0.693 2.27,1.345 3.644,1.95 C 2.532,8.117 4.018,8.379 5.616,8.3 8.07,8.176 10.062,7.405 11.588,5.987 13.121,4.572 13.805,2.382 13.648,-0.577 13.627,-0.941 13.57,-1.494 13.471,-2.235 12.241,-2.388 11.008,-2.544 9.777,-2.698 8.645,-2.713 7.009,-2.666 4.864,-2.56 3.25,-2.479 1.636,-2.397 0.022,-2.319 c 0.1,-2.523 0.778,-4.449 2.023,-5.782 1.245,-1.335 2.882,-2.052 4.904,-2.156 0.85,-0.042 1.689,0.034 2.538,0.233 0.843,0.197 1.689,0.508 2.532,0.933"
             style="fill:#d0ab73;fill-opacity:1;fill-rule:nonzero;stroke:none"
             id="path910"
             inkscape:connector-curvature="0" /></g><g
           id="g912"
           transform="translate(400,674.1553)"><path
             d="m 0,0 2.897,-8.916 9.374,0 -7.584,-5.51 2.897,-8.916 -7.584,5.51 -7.584,-5.51 2.897,8.916 -7.585,5.51 9.375,0 L 0,0 Z"
             style="fill:#d0ab73;fill-opacity:1;fill-rule:nonzero;stroke:none"
             id="path914"
             inkscape:connector-curvature="0" /></g><g
           id="g916"
           transform="translate(352.394,669.9907)"><path
             d="m 0,0 4.4,-8.277 9.233,1.628 -6.512,-6.744 4.401,-8.277 -8.425,4.11 -6.514,-6.744 1.305,9.283 -8.426,4.109 9.233,1.629 L 0,0 Z"
             style="fill:#d0ab73;fill-opacity:1;fill-rule:nonzero;stroke:none"
             id="path918"
             inkscape:connector-curvature="0" /></g><g
           id="g920"
           transform="translate(306.2334,657.623)"><path
             d="m 0,0 5.771,-7.388 8.81,3.207 -5.242,-7.772 5.772,-7.387 -9.011,2.585 -5.245,-7.773 -0.326,9.368 -9.011,2.584 8.81,3.207 L 0,0 Z"
             style="fill:#d0ab73;fill-opacity:1;fill-rule:nonzero;stroke:none"
             id="path922"
             inkscape:connector-curvature="0" /></g><g
           id="g924"
           transform="translate(447.6055,669.9907)"><path
             d="m 0,0 -4.399,-8.277 -9.234,1.628 6.513,-6.744 -4.402,-8.277 8.425,4.11 6.514,-6.744 -1.305,9.283 8.426,4.109 L 1.306,-9.283 0,0 Z"
             style="fill:#d0ab73;fill-opacity:1;fill-rule:nonzero;stroke:none"
             id="path926"
             inkscape:connector-curvature="0" /></g><g
           id="g928"
           transform="translate(493.7666,657.623)"><path
             d="m 0,0 -5.771,-7.388 -8.809,3.207 5.241,-7.772 -5.772,-7.387 9.01,2.585 5.246,-7.773 0.326,9.368 9.01,2.584 -8.809,3.207 L 0,0 Z"
             style="fill:#d0ab73;fill-opacity:1;fill-rule:nonzero;stroke:none"
             id="path930"
             inkscape:connector-curvature="0" /></g><g
           id="g932"
           transform="translate(400,125.8447)"><path
             d="m 0,0 2.897,8.916 9.374,0 -7.584,5.51 2.897,8.916 -7.584,-5.51 -7.584,5.51 2.897,-8.916 -7.585,-5.51 9.375,0 L 0,0 Z"
             style="fill:#d0ab73;fill-opacity:1;fill-rule:nonzero;stroke:none"
             id="path934"
             inkscape:connector-curvature="0" /></g><g
           id="g936"
           transform="translate(352.394,130.0088)"><path
             d="m 0,0 4.4,8.278 9.233,-1.629 -6.512,6.744 4.401,8.278 -8.425,-4.11 -6.514,6.743 1.305,-9.283 -8.426,-4.11 L -1.305,9.284 0,0 Z"
             style="fill:#d0ab73;fill-opacity:1;fill-rule:nonzero;stroke:none"
             id="path938"
             inkscape:connector-curvature="0" /></g><g
           id="g940"
           transform="translate(306.2334,142.3779)"><path
             d="M 0,0 5.771,7.386 14.581,4.18 9.339,11.952 15.111,19.34 6.1,16.755 0.855,24.528 0.529,15.159 -8.482,12.574 0.328,9.368 0,0 Z"
             style="fill:#d0ab73;fill-opacity:1;fill-rule:nonzero;stroke:none"
             id="path942"
             inkscape:connector-curvature="0" /></g><g
           id="g944"
           transform="translate(447.6055,130.0088)"><path
             d="m 0,0 -4.399,8.278 -9.234,-1.629 6.513,6.744 -4.402,8.278 8.425,-4.11 6.514,6.743 -1.305,-9.283 8.426,-4.11 L 1.306,9.284 0,0 Z"
             style="fill:#d0ab73;fill-opacity:1;fill-rule:nonzero;stroke:none"
             id="path946"
             inkscape:connector-curvature="0" /></g><g
           id="g948"
           transform="translate(493.7666,142.3779)"><path
             d="m 0,0 -5.771,7.386 -8.809,-3.206 5.241,7.772 -5.772,7.388 9.01,-2.585 5.246,7.773 0.326,-9.369 9.01,-2.585 L -0.328,9.368 0,0 Z"
             style="fill:#d0ab73;fill-opacity:1;fill-rule:nonzero;stroke:none"
             id="path950"
             inkscape:connector-curvature="0" /></g></g></g></g></svg>